<svg xmlns="http://www.w3.org/2000/svg" width="24" height="24" viewBox="0 0 24 24">
    <g data-name="Group 24071">
        <path data-name="Path 22552" d="M70.124 0A6.132 6.132 0 0 0 64 6.124c0 4.4 5.706 9.9 5.948 10.135a.253.253 0 0 0 .352 0c.242-.232 5.948-5.739 5.948-10.135A6.132 6.132 0 0 0 70.124 0zm0 8.931a2.807 2.807 0 1 1 2.807-2.807 2.807 2.807 0 0 1-2.807 2.807z" style="fill:#d5b877" transform="translate(-58 4)"/>
        <path data-name="Rectangle 11047" style="fill:none" d="M0 0h24v24H0z"/>
    </g>
</svg>
