<svg xmlns="http://www.w3.org/2000/svg" width="64" height="64" viewBox="0 0 64 64">
    <g data-name="Group 24115">
        <path data-name="Path 22598" d="M40.68 95.255a11.705 11.705 0 0 0-4.169-4.136 11.513 11.513 0 0 0-1.48-.724c.086-.077.17-.157.252-.239a6.535 6.535 0 1 0-11.143-4.974 6.538 6.538 0 0 0-6.932 0 6.535 6.535 0 1 0-11.146 4.974c.082.082.167.162.252.239a11.512 11.512 0 0 0-1.48.724 11.705 11.705 0 0 0-4.167 4.136 4.689 4.689 0 0 0-.035 4.765 4.743 4.743 0 0 0 4.168 2.425h5.21a4.8 4.8 0 0 0 4.78 5.187h11.769a4.8 4.8 0 0 0 4.78-5.187h5.21a4.744 4.744 0 0 0 4.166-2.424 4.689 4.689 0 0 0-.035-4.766zm-2.16 3.515a2.245 2.245 0 0 1-1.971 1.149h-6.19a11.706 11.706 0 0 0-3.837-3.613 11.553 11.553 0 0 0-1.479-.724c.085-.077.17-.156.252-.239a6.514 6.514 0 0 0 1.536-2.42 9.092 9.092 0 0 1 11.677 3.619 2.191 2.191 0 0 1 .012 2.228zm-10 2.96a2.191 2.191 0 0 1 .013 2.227 2.245 2.245 0 0 1-1.971 1.149H14.787a2.246 2.246 0 0 1-1.971-1.149 2.192 2.192 0 0 1 .013-2.227 9.114 9.114 0 0 1 15.688 0zM2.826 98.77a2.191 2.191 0 0 1 .013-2.227 9.092 9.092 0 0 1 11.677-3.619 6.519 6.519 0 0 0 1.536 2.42q.124.123.252.239a11.577 11.577 0 0 0-1.48.724 11.711 11.711 0 0 0-3.837 3.613H4.8a2.245 2.245 0 0 1-1.974-1.15zm5.022-10.4a4.009 4.009 0 1 1 2.835 1.174 3.984 3.984 0 0 1-2.835-1.173zm22.814-6.843a4.007 4.007 0 1 1-2.834 1.173 4 4 0 0 1 2.835-1.172zm-7.154 6.359a4.009 4.009 0 1 1-2.835-1.174 3.982 3.982 0 0 1 2.835 1.175z" transform="translate(11 -61)" style="fill:#959595"/>
        <path data-name="Rectangle 11089" style="fill:none" d="M0 0h64v64H0z"/>
    </g>
</svg>
