<svg xmlns="http://www.w3.org/2000/svg" width="64" height="64" viewBox="0 0 64 64">
    <g data-name="Group 24155">
        <path data-name="Rectangle 11089" style="fill:none" d="M0 0h64v64H0z"/>
        <g data-name="Group 24120">
            <path data-name="Path 22597" d="M28.816 8.574a.946.946 0 0 0 .713-.514l2.676-5.353a.946.946 0 0 0-.177-1.092L30.69.277A.946.946 0 0 0 29.6.1l-5.356 2.676a.946.946 0 0 0-.514.713l-.625 4.372-5.618 5.619-4.657-4.657A6.589 6.589 0 0 0 3.77.654a.947.947 0 0 0-.263 1.524L7 5.669v1.338H5.661L2.169 3.516a.947.947 0 0 0-1.524.263 6.589 6.589 0 0 0 8.17 9.06l1.985 1.982-.046.041-9.37 9.368a4.731 4.731 0 0 0 6.691 6.691l9.368-9.368a.587.587 0 0 0 .041-.046l1.983 1.983a6.589 6.589 0 0 0 9.06 8.17.947.947 0 0 0 .263-1.524l-3.49-3.492v-1.338h1.338l3.49 3.494a.947.947 0 0 0 1.524-.263 6.589 6.589 0 0 0-8.17-9.06l-4.657-4.657 5.619-5.62zM16.105 20.215l-9.368 9.368a2.839 2.839 0 0 1-3.232.555l5.909-5.908a.946.946 0 1 0-1.338-1.338L2.168 28.8a2.843 2.843 0 0 1 .554-3.231L12.09 16.2a.587.587 0 0 0 .041-.046l4.019 4.019-.045.042zm7.56 1.23a4.692 4.692 0 0 1 6.691 4.9L27.7 23.691a.946.946 0 0 0-.669-.277h-2.679a.946.946 0 0 0-.946.946v2.677a.946.946 0 0 0 .277.669l2.659 2.659a4.692 4.692 0 0 1-4.9-6.691.946.946 0 0 0-.186-1.075L9.707 11.054a.946.946 0 0 0-1.076-.186 4.692 4.692 0 0 1-6.691-4.9L4.6 8.623a.946.946 0 0 0 .669.277h2.676a.946.946 0 0 0 .946-.946V5.277a.946.946 0 0 0-.277-.669L5.955 1.949a4.692 4.692 0 0 1 4.9 6.691.946.946 0 0 0 .185 1.075L22.59 21.26a.947.947 0 0 0 1.075.185zm1.869-17.2 4.3-2.15.374.374-2.15 4.3-2.944.421z" transform="translate(15.998 16)" style="fill:#959595"/>
        </g>
    </g>
</svg>
