<svg xmlns="http://www.w3.org/2000/svg" width="64" height="64" viewBox="0 0 64 64">
  <defs>
    <style>
      .cls-1 {
        fill: none;
      }

      .cls-2 {
        fill: #959595;
      }
    </style>
  </defs>
  <g id="Group_24154" data-name="Group 24154" transform="translate(-546.001 -1565)">
    <rect id="Rectangle_11089" data-name="Rectangle 11089" class="cls-1" width="64" height="64" transform="translate(546.001 1565)"/>
    <path id="Path_22606" data-name="Path 22606" class="cls-2" d="M7.376,30.688A10.759,10.759,0,1,0,18.135,19.929,10.771,10.771,0,0,0,7.376,30.688Zm10.759-8.3a8.3,8.3,0,1,1-8.3,8.3A8.307,8.307,0,0,1,18.135,22.39Zm-3.644,11.7a1.231,1.231,0,0,1,.059-1.739l2.355-2.2V25.987a1.231,1.231,0,0,1,2.461,0v4.7a1.23,1.23,0,0,1-.39.9L16.23,34.152a1.231,1.231,0,0,1-1.739-.059Zm24.49-3.026-3.3,3.02a1.231,1.231,0,0,1-1.738-.078l-3.02-3.3a1.231,1.231,0,0,1,1.817-1.66L33.8,30.214a15.605,15.605,0,0,0-7.835-13.1,15.894,15.894,0,0,0-1.948-.954,1.231,1.231,0,1,1,.928-2.28,18.368,18.368,0,0,1,2.251,1.1,18.142,18.142,0,0,1,9.065,15.235l1.056-.966a1.231,1.231,0,1,1,1.66,1.816ZM2.612,32.852a1.231,1.231,0,1,1-2.438.336A18.349,18.349,0,0,1,0,30.688,18.141,18.141,0,0,1,8.664,15.221L7.3,14.789a1.231,1.231,0,1,1,.743-2.346l4.267,1.351a1.231,1.231,0,0,1,.8,1.545L11.76,19.6a1.231,1.231,0,0,1-2.346-.743l.478-1.51A15.6,15.6,0,0,0,2.464,30.688,15.888,15.888,0,0,0,2.612,32.852ZM29.484,43.606a1.23,1.23,0,0,1-.216,1.727,18.3,18.3,0,0,1-2.08,1.4,18.035,18.035,0,0,1-9.043,2.432q-.706,0-1.416-.055a18.145,18.145,0,0,1-7.265-2.144l.308,1.4a1.231,1.231,0,1,1-2.4.53L6.4,44.521a1.231,1.231,0,0,1,.937-1.467l4.37-.963a1.231,1.231,0,0,1,.53,2.4l-1.546.341A15.6,15.6,0,0,0,25.957,44.6a15.821,15.821,0,0,0,1.8-1.21,1.231,1.231,0,0,1,1.727.216Z" transform="translate(557.995 1565.616)"/>
  </g>
</svg>
