<svg xmlns="http://www.w3.org/2000/svg" width="64" height="64" viewBox="0 0 64 64">
    <g data-name="Group 24153">
        <path data-name="Rectangle 11089" style="fill:none" d="M0 0h64v64H0z"/>
        <g data-name="Group 24117">
            <path data-name="Path 22601" d="m36.1 14.514-2.272-.885a16.085 16.085 0 0 0-1.151-2.785l.979-2.229a1.078 1.078 0 0 0-.225-1.2l-4.067-4.06a1.078 1.078 0 0 0-1.2-.225l-2.229.979a16.075 16.075 0 0 0-2.785-1.151L22.269.686a1.078 1.078 0 0 0-1-.686h-5.751a1.078 1.078 0 0 0-1 .686l-.885 2.272a16.078 16.078 0 0 0-2.785 1.151L8.614 3.13a1.077 1.077 0 0 0-1.2.225L3.355 7.419a1.078 1.078 0 0 0-.225 1.2l.979 2.229a16.085 16.085 0 0 0-1.151 2.785l-2.272.885a1.078 1.078 0 0 0-.686 1v5.747a1.078 1.078 0 0 0 .686 1l2.272.885a16.086 16.086 0 0 0 1.151 2.79l-.979 2.229a1.078 1.078 0 0 0 .225 1.2l4.064 4.064a1.077 1.077 0 0 0 1.2.225l2.229-.979a16.082 16.082 0 0 0 2.785 1.151l.885 2.272a1.077 1.077 0 0 0 1 .686h5.747a1.078 1.078 0 0 0 1-.686l.885-2.272a16.078 16.078 0 0 0 2.785-1.151l2.229.979a1.078 1.078 0 0 0 1.2-.225l4.064-4.064a1.078 1.078 0 0 0 .225-1.2l-.979-2.229a16.087 16.087 0 0 0 1.151-2.785l2.272-.885a1.078 1.078 0 0 0 .686-1v-5.752a1.078 1.078 0 0 0-.686-1zm-1.469 6.015-2.082.811a1.078 1.078 0 0 0-.649.722 13.918 13.918 0 0 1-1.359 3.288 1.078 1.078 0 0 0-.052.97l.9 2.042-3.022 3.022-2.042-.9a1.077 1.077 0 0 0-.97.052 13.918 13.918 0 0 1-3.293 1.364 1.078 1.078 0 0 0-.722.649l-.811 2.082h-4.274l-.811-2.082a1.078 1.078 0 0 0-.722-.649 13.923 13.923 0 0 1-3.288-1.359 1.078 1.078 0 0 0-.97-.052l-2.042.9L5.4 28.361l.9-2.042a1.078 1.078 0 0 0-.052-.97 13.918 13.918 0 0 1-1.359-3.288 1.078 1.078 0 0 0-.649-.722l-2.082-.811v-4.273l2.082-.811a1.078 1.078 0 0 0 .649-.722 13.922 13.922 0 0 1 1.359-3.288 1.078 1.078 0 0 0 .052-.97l-.9-2.042L8.422 5.4l2.042.9a1.077 1.077 0 0 0 .97-.052 13.918 13.918 0 0 1 3.288-1.359 1.078 1.078 0 0 0 .722-.649l.811-2.081h4.274l.811 2.082a1.078 1.078 0 0 0 .722.649 13.919 13.919 0 0 1 3.288 1.354 1.077 1.077 0 0 0 .97.052l2.042-.9 3.022 3.022-.9 2.042a1.078 1.078 0 0 0 .052.97 13.921 13.921 0 0 1 1.364 3.292 1.078 1.078 0 0 0 .649.722l2.082.811z" transform="translate(13.999 14)" style="fill:#959595"/>
            <path data-name="Path 22602" d="M102.854 91a11.854 11.854 0 1 0 11.854 11.854A11.867 11.867 0 0 0 102.854 91zm2.874 11.495a1.078 1.078 0 0 0-1.078 1.078v8.813a9.719 9.719 0 0 1-3.592 0v-8.813a1.078 1.078 0 0 0-1.078-1.078h-.632l3.505-4.382 3.505 4.382zm1.078 9.216v-7.061h1.8a1.078 1.078 0 0 0 .841-1.751l-5.747-7.184a1.078 1.078 0 0 0-1.683 0l-5.752 7.185a1.078 1.078 0 0 0 .841 1.751h1.8v7.061a9.7 9.7 0 1 1 7.9 0z" transform="translate(-70.463 -70.462)" style="fill:#959595"/>
        </g>
    </g>
</svg>
