<svg xmlns="http://www.w3.org/2000/svg" width="24" height="24" viewBox="0 0 24 24">
    <g data-name="Group 24073">
        <path data-name="Rectangle 11048" style="fill:none" d="M0 0h24v24H0z"/>
        <path data-name="Path 22554" d="M108.444 333.582c.005-.7 0-2.2 0-2.915H95.953c.01.716-.007 2.208 0 2.915a.418.418 0 0 0 .416.416h11.659a.418.418 0 0 0 .416-.416z" transform="translate(-90.038 -315.506)" style="fill:#d5b877"/>
        <path data-name="Path 22555" d="M38.405 202.667H22.582a1.251 1.251 0 0 0-1.249 1.249v4.164a1.251 1.251 0 0 0 1.249 1.249h.833v-2.082a.418.418 0 0 1 .416-.416h13.325a.418.418 0 0 1 .416.416v2.082h.833a1.251 1.251 0 0 0 1.249-1.249v-4.164a1.251 1.251 0 0 0-1.249-1.249zm-2.074 2.5a.416.416 0 0 1 0-.833.416.416 0 0 1 0 .831zm1.249 0a.416.416 0 0 1 0-.833.416.416 0 0 1 .001.831z" transform="translate(-18.333 -192.503)" style="fill:#d5b877"/>
        <path data-name="Path 22556" d="M128.416 96a.417.417 0 0 0-.416.416v2.915h9.993v-2.915a.416.416 0 0 0-.416-.416z" transform="translate(-120.836 -90)" style="fill:#d5b877"/>
    </g>
</svg>
