<svg xmlns="http://www.w3.org/2000/svg" width="24" height="24" viewBox="0 0 24 24">
    <g data-name="Group 24012">
        <g data-name="Group 4631">
            <path d="M12.551 6.1v7.3a.46.46 0 0 1-.43.43H8.512V9.967a1.633 1.633 0 1 0-3.265 0v3.781H1.638a.406.406 0 0 1-.43-.43V6.1l-.6.516a.243.243 0 0 1-.43 0C0 6.53 0 6.358.091 6.186L6.536.171a.425.425 0 0 1 .6-.086l.086.086 6.445 6.015a.243.243 0 0 1 0 .43.243.243 0 0 1-.43 0z" transform="translate(4.966 5.008)" style="fill:#fff;fill-rule:evenodd"/>
            <path data-name="Rectangle 2704" style="fill:none" d="M0 0h24v24H0z"/>
        </g>
    </g>
</svg>
