<svg xmlns="http://www.w3.org/2000/svg" width="24" height="24" viewBox="0 0 24 24">
    <g data-name="Group 24072">
        <path data-name="Path 22553" d="M31.024 27.177c-.042-.034-3.123-2.254-3.968-2.095-.4.071-.634.347-1.1.9-.075.089-.254.3-.393.454a6.479 6.479 0 0 1-.854-.348 7.089 7.089 0 0 1-3.271-3.271 6.448 6.448 0 0 1-.348-.854c.152-.14.365-.319.456-.4.548-.461.824-.691.9-1.1.146-.838-2.072-3.94-2.1-3.968a1.184 1.184 0 0 0-.882-.5C18.568 16 16 19.331 16 19.892c0 .033.047 3.346 4.133 7.5 4.153 4.082 7.466 4.129 7.5 4.129.561 0 3.892-2.568 3.892-3.467a1.181 1.181 0 0 0-.5-.88z" transform="translate(-12 -12)" style="fill:#d5b877"/>
        <path data-name="Rectangle 11048" style="fill:none" d="M0 0h24v24H0z"/>
    </g>
</svg>
