<svg xmlns="http://www.w3.org/2000/svg" width="96" height="96" viewBox="0 0 96 96">
    <g data-name="Group 25520">
        <g data-name="Group 25508" transform="translate(-841.824 -1123.431)">
            <g data-name="Group 25505">
                <path data-name="Path 24014" d="m889.385 1134.431-38.561 33.169h77.122z" style="fill:#d6b977"/>
                <path data-name="Rectangle 11536" transform="translate(850.824 1167.599)" style="fill:#d6b977" d="M0 0h77.122v41.815H0z"/>
            </g>
            <circle data-name="Ellipse 1596" cx="18.936" cy="18.936" r="18.936" transform="translate(870.448 1161.806)" style="fill:#fff"/>
            <g data-name="Group 25506">
                <path data-name="Path 24015" d="m909.243 1164.063-5.144 5.144a2.114 2.114 0 0 1-2.981 0 2.112 2.112 0 0 1 0-2.98l5.211-5.212a7.459 7.459 0 1 0 2.914 3.048z" style="fill:#333"/>
                <path data-name="Path 24016" d="M877.847 1192.478a2.116 2.116 0 0 1 0-2.981l20.29-20.29a2.113 2.113 0 0 1 2.981 0 2.114 2.114 0 0 1 0 2.981l-20.29 20.29a2.114 2.114 0 0 1-2.981 0z" style="fill:#333"/>
                <path data-name="Path 24017" d="m872.521 1200.784 5.144-5.144a2.112 2.112 0 0 0 0-2.98 2.112 2.112 0 0 0-2.98 0l-5.211 5.211a7.459 7.459 0 1 1 3.047 2.913z" style="fill:#333"/>
                <path data-name="Path 24018" d="M900.936 1169.389a2.112 2.112 0 0 0-2.98 0l-20.291 20.29a2.116 2.116 0 0 0 0 2.981 2.116 2.116 0 0 0 2.981 0l20.29-20.291a2.112 2.112 0 0 0 0-2.98z" style="fill:#333"/>
            </g>
            <g data-name="Group 25507">
                <path data-name="Path 24019" d="m904.6 1201.613-11.325-11.324a3.162 3.162 0 0 1 0-4.457l1.2-1.2a3.162 3.162 0 0 1 4.457 0l11.325 11.325z" style="fill:#333"/>
                <path data-name="Line 11419" transform="translate(874.133 1165.49)" style="stroke:#333;stroke-linecap:round;stroke-linejoin:round;stroke-width:1.478px;fill:none" d="M31.463 31.463 0 0"/>
                <path data-name="Path 24020" d="m872.839 1161.806 2.692 2.692a1.7 1.7 0 0 1 0 2.39 1.7 1.7 0 0 1-2.391 0l-2.692-2.691z" style="fill:#333"/>
                <path data-name="Path 24021" d="m909.477 1198.034-2.758 2.759a.923.923 0 0 1-1.3 0 .924.924 0 0 1 0-1.3l2.758-2.759a.923.923 0 0 1 1.3 0 .923.923 0 0 1 0 1.3z" style="fill:#333"/>
            </g>
        </g>
        <path data-name="Rectangle 11541" style="fill:none" d="M0 0h96v96H0z"/>
    </g>
</svg>
