<svg xmlns="http://www.w3.org/2000/svg" width="96" height="96" viewBox="0 0 96 96">
    <g data-name="Group 25546">
        <g data-name="Group 25516">
            <g data-name="Group 25515">
                <g data-name="Group 25513">
                    <path data-name="Path 24028" d="m1345.922 1139.505-32.907 28.305h65.815z" style="fill:#d6b977" transform="translate(-1302.015 -1120.822)"/>
                    <path data-name="Rectangle 11538" transform="translate(11 46.989)" style="fill:#d6b977" d="M0 0h65.815v33.673H0z"/>
                </g>
                <g data-name="Group 25514">
                    <path data-name="Path 24029" d="M1350.127 1183.3a3.6 3.6 0 0 0-.9-2.568 8.106 8.106 0 0 0-3.04-1.762 35.709 35.709 0 0 1-3.7-1.6 11.754 11.754 0 0 1-2.667-1.83 7.368 7.368 0 0 1-1.732-2.431 8.156 8.156 0 0 1-.62-3.325 7.381 7.381 0 0 1 2.126-5.452 8.969 8.969 0 0 1 5.648-2.48v-4.211h3.149v4.27a8.219 8.219 0 0 1 5.451 2.9 9.567 9.567 0 0 1 1.969 6.249h-5.688a5.433 5.433 0 0 0-.974-3.533 3.222 3.222 0 0 0-2.608-1.171 3.315 3.315 0 0 0-2.5.915 3.483 3.483 0 0 0-.886 2.529 3.329 3.329 0 0 0 .866 2.4 9.535 9.535 0 0 0 3.218 1.85 36.038 36.038 0 0 1 3.867 1.781 11.165 11.165 0 0 1 2.558 1.89 7.3 7.3 0 0 1 1.594 2.4 8.239 8.239 0 0 1 .552 3.139 7.345 7.345 0 0 1-2.087 5.431 9.143 9.143 0 0 1-5.746 2.46v3.917h-3.129v-3.9a9.47 9.47 0 0 1-6.249-2.863 9.232 9.232 0 0 1-2.214-6.465h5.688a5.228 5.228 0 0 0 1.112 3.591 4.053 4.053 0 0 0 3.2 1.25 3.906 3.906 0 0 0 2.735-.915 3.18 3.18 0 0 0 1.007-2.466z" style="fill:#333" transform="translate(-1302.015 -1120.822)"/>
                </g>
            </g>
            <path data-name="Path 24030" d="m1349.613 1137.881 32.468 28.305v35.3" style="stroke:#d6b977;stroke-linecap:round;stroke-linejoin:round;stroke-width:.924px;fill:none" transform="translate(-1302.015 -1120.822)"/>
            <path data-name="Path 24031" d="m1353.866 1136.822 32.468 28.305v36.357" style="stroke:#d6b977;stroke-linecap:round;stroke-linejoin:round;stroke-width:.924px;fill:none" transform="translate(-1302.015 -1120.822)"/>
        </g>
        <g data-name="Group 25517">
            <path data-name="Rectangle 11544" style="fill:none" d="M0 0h96v96H0z"/>
        </g>
    </g>
</svg>
