<svg xmlns="http://www.w3.org/2000/svg" width="366.5" height="134.5" viewBox="0 0 366.5 134.5">
    <g data-name="Group 25625">
        <g data-name="Group 25523">
            <path data-name="Path 24032" d="M1405.579 1088.695a11.612 11.612 0 0 0 11.612 11.612" transform="rotate(90 1368.943 86.002)" style="fill:none;stroke:#d5b876;stroke-miterlimit:10;stroke-width:.5px"/>
            <path data-name="Path 24033" d="M1282.839 1100.307a11.612 11.612 0 0 0 11.613-11.612" transform="rotate(90 1368.766 86.178)" style="fill:none;stroke:#d5b876;stroke-miterlimit:10;stroke-width:.5px"/>
            <path data-name="Line 11431" transform="rotate(90 173.53 173.78)" style="fill:none;stroke:#d5b876;stroke-miterlimit:10;stroke-width:.5px" d="M0 327.622V0"/>
            <path data-name="Line 11432" transform="rotate(90 106.53 240.78)" style="fill:none;stroke:#d5b876;stroke-miterlimit:10;stroke-width:.5px" d="M0 327.622V0"/>
            <path data-name="Line 11433" transform="rotate(90 173.952 192.298)" style="fill:none;stroke:#d5b876;stroke-miterlimit:10;stroke-width:.5px" d="M0 0h98.306"/>
        </g>
        <g data-name="Group 25524">
            <path data-name="Path 24034" d="M1405.579 1545.664a11.612 11.612 0 0 1 11.612-11.613" transform="rotate(90 1414.427 131.486)" style="fill:none;stroke:#d5b876;stroke-miterlimit:10;stroke-width:.5px"/>
            <path data-name="Path 24035" d="M1282.839 1534.051a11.613 11.613 0 0 1 11.613 11.613" transform="rotate(90 1414.251 131.662)" style="fill:none;stroke:#d5b876;stroke-miterlimit:10;stroke-width:.5px"/>
            <path data-name="Line 11434" transform="rotate(90 -9.049 9.297)" style="fill:none;stroke:#d5b876;stroke-miterlimit:10;stroke-width:.5px" d="M0 0h98.306"/>
        </g>
    </g>
</svg>
