<svg xmlns="http://www.w3.org/2000/svg" width="96" height="96" viewBox="0 0 96 96">
    <g data-name="Group 25521">
        <g data-name="Group 25504">
            <g data-name="Group 25503">
                <path data-name="Rectangle 11533" transform="translate(8.999 32.707)" style="fill:#d6b977" d="M0 0h12.355v19.909H0z"/>
                <path data-name="Path 24011" d="M715.958 1208.952H703.6l6.177-25.673h6.178z" style="fill:#d6b977" transform="translate(-688.426 -1130.664)"/>
                <path data-name="Path 24012" d="m753.691 1198.987-37.735-15.707v-19.909l37.735-15.707z" style="fill:#d6b977" transform="translate(-688.426 -1130.664)"/>
                <path data-name="Rectangle 11534" transform="translate(23.333 32.707)" style="fill:#fff" d="M0 0h4.196v19.909H0z"/>
                <path data-name="Rectangle 11535" transform="translate(65.265 28.931)" style="fill:#fff" d="M0 0h2.098v27.461H0z"/>
                <path data-name="Line 11416" transform="translate(72.337 42.493)" style="stroke-linecap:round;stroke-linejoin:round;stroke-width:.924px;stroke:#fff;fill:none" d="M0 0h15.473"/>
                <path data-name="Line 11417" transform="translate(72.337 58.846)" style="stroke-linecap:round;stroke-linejoin:round;stroke-width:.924px;stroke:#fff;fill:none" d="m0 0 15.473 5.161"/>
                <path data-name="Line 11418" transform="translate(72.337 21.839)" style="stroke-linecap:round;stroke-linejoin:round;stroke-width:.924px;stroke:#fff;fill:none" d="M0 4.301 15.473 0"/>
            </g>
            <path data-name="Path 24013" d="M707.562 1166.919a1.4 1.4 0 1 1-1.4-1.4 1.4 1.4 0 0 1 1.4 1.4z" style="stroke:#333;stroke-linecap:round;stroke-linejoin:round;stroke-width:.924px;fill:none" transform="translate(-688.426 -1130.664)"/>
        </g>
        <path data-name="Rectangle 11540" style="fill:none" d="M0 0h96v96H0z"/>
    </g>
</svg>
