<svg xmlns="http://www.w3.org/2000/svg" width="17.712" height="12.925" viewBox="0 0 17.712 12.925">
    <g data-name="Group 25548">
        <path data-name="Path 24037" d="M1680.874 297.793c0 1.9-1.813 3.44-4.051 3.44s-4.05-1.54-4.05-3.44c0-4.793 5.228-9.486 5.228-9.486l.879.758a13.987 13.987 0 0 0-3.557 5.533 4.671 4.671 0 0 1 1.5-.244c2.238-.001 4.051 1.539 4.051 3.439z" transform="translate(-1672.773 -288.307)" style="fill:#fff"/>
        <path data-name="Path 24038" d="M1196.562 297.793c0 1.9-1.813 3.44-4.051 3.44s-4.051-1.54-4.051-3.44c0-4.793 5.229-9.486 5.229-9.486l.878.758a13.987 13.987 0 0 0-3.557 5.533 4.67 4.67 0 0 1 1.5-.244c2.239-.001 4.052 1.539 4.052 3.439z" transform="translate(-1178.85 -288.307)" style="fill:#fff"/>
    </g>
</svg>
