<svg xmlns="http://www.w3.org/2000/svg" width="286.924" height="568.679" viewBox="0 0 286.924 568.679">
    <path data-name="Path 24054" d="M2698.01 917.171c-4.819.729-4.847.858-6.419-3.793a54.37 54.37 0 0 1-1.543-5.843c-.423-1.94-.693-3.912-.933-5.3-3.857 0-7.393.147-10.908-.061a27.18 27.18 0 0 1-5.351-1.313c-1.677-.458-3.382-1.481-5-1.346-3.166.266-6.024.781-8.7-1.849-1.422-1.4-3.754-1.874-5.691-2.731-1.661-.735-1.833-1.62-.468-2.87a16.729 16.729 0 0 0 1.59-1.939l-.439-.6a30.853 30.853 0 0 1-2.858 1.339c-.776.278-2.046.755-2.381.423a29.088 29.088 0 0 1-5.046-5.869c-1.958-3.439-4.16-6.59-8.169-7.357-7.545-1.443-13.653 1.6-18.275 7.348a103.092 103.092 0 0 0-7.368 11.415 3.511 3.511 0 0 0-.418 2.871 1.955 1.955 0 0 1-.693 2.9 39.623 39.623 0 0 1-20.062 7.842c-5.367.52-10.041 1.844-14.295 5.194a32.58 32.58 0 0 1-7.5 4.215c-2.764 1.165-5.717 1.845-7.5 4.588a2.918 2.918 0 0 1-1.209.75c-4.091 1.962-6.931 5.24-7.25 9.63-.273 3.75-2.531 6.017-4.46 8.548-2.051 2.692-5.45 10.991-5.573 14.522-.023.672-1.271 1.957-1.607 1.852-1.617-.5-2.03.67-2.609 1.549-1.94 2.949-1.24 6.138-.426 9.166 1.024 3.814-.508 6.362-3.284 8.667a8.971 8.971 0 0 0-2.413 3.128c-2.538 5.717-6.51 9.531-12.884 10.624a3.666 3.666 0 0 0-2.2 2.015c-.955 2.234-1.445 4.861-3.915 5.882-3.736 1.544-4.847 4.644-5.68 8.136-.8 3.362-1.248 6.984-2.867 9.934-2.384 4.346-3.786 9.216-8.151 12.658-2.339 1.845-3.244 6.067-3.826 9.386-.43 2.451-1.19 4.056-3.256 5.172a4.034 4.034 0 0 0-2.3 3.938c.042 1.835-.9 3.043-2.376 4.2a17.2 17.2 0 0 0-6.285 11.053c-.3 1.817.788 3.86 1.27 5.907-.662.715-1.772 1.378-2.019 2.278-1.018 3.715-3.525 5.485-6.965 6.905-2.531 1.046-2.353 3.793-.47 5.862a2.947 2.947 0 0 1 .371 2.721c-1.971 3.31-4.178 6.479-6.31 9.692-1.455 2.192-3.281 4.232-4.239 6.621-.532 1.327-.806 2.235-2.235 2.63-2 .552-2.271 1.885-1.745 3.775a7.787 7.787 0 0 1 .287 4.117c-1.382 4.435-2.895 8.807-6.113 12.438a6.019 6.019 0 0 0-1.232 4.821c.613 2.138-.3 2.85-1.775 3.478a13.989 13.989 0 0 1-3.043.751 4.76 4.76 0 0 0-4.285 4.244 45.442 45.442 0 0 1-1.5 6.365 5.906 5.906 0 0 1-1.943 2.858 3.527 3.527 0 0 0-1.68 3.934 11.64 11.64 0 0 1-1.9 9.239 13.143 13.143 0 0 0-2.139 8.066c.255 4.274.54 8.551 1.006 12.806.174 1.588-.012 2.461-1.627 3.163a3.5 3.5 0 0 0-1.675 2.619 2.915 2.915 0 0 0 1.718 2.269c2.91.5 3.288 2.307 3.022 4.71a4.73 4.73 0 0 0 .191 1.681c.924 3.5 1.96 6.969 2.8 10.487.6 2.528-.114 3.38-2.609 3.744-1.741.255-3.513.771-3.792 2.782a44.765 44.765 0 0 0-.452 7.7c.081 2.316 1.137 4.4-.332 6.916-1.309 2.247-1.387 5.208-2.036 7.847a2.689 2.689 0 0 1-.57 1.316c-3.572 3.248-1.856 7-.522 10.28.912 2.241.468 3.285-1.186 4.423a14.878 14.878 0 0 1-2.236 1.45c-1.942.868-2.475 2.161-1.973 4.259.89 3.712 2.226 6.4 6.484 7.742 8.926 2.814 15.29 8.553 17.354 18.2a29.879 29.879 0 0 0 1.859 5.2c1.149 2.737 2.414 5.427 3.609 8.146.746 1.7 1.337 3.478 2.2 5.113 2.949 5.571 5.994 11.091 8.991 16.636 1.14 2.109 1.224 4.039-.512 6.022-1.3 1.488-1.639 3.149.638 4.39a2.871 2.871 0 0 1 1.209 1.914c.423 3.244 2.343 5.355 4.831 7.229a25.611 25.611 0 0 1 3.95 3.888c.933 1.093 1.438 2.571 2.434 3.583a24.137 24.137 0 0 0 4.21 3.274c3.67 2.352 7.316 4.75 12.029 4.49.728-.04 1.569 1.089 2.278 1.761 1.376 1.3 2.478 3.095 4.085 3.92 3.55 1.822 7.392 3.065 11.025 4.738 4.9 2.257 10.1 4.2 12.446 9.769a2.276 2.276 0 0 0 1.054.948c4.489 2.307 6.289 6.246 6.923 11a6.59 6.59 0 0 0 1.327 2.7c1.577 2.224 3.715 4.173 4.79 6.6 2.115 4.786 3.683 9.816 5.433 14.761.695 1.964 1.621 3.981-.317 5.842-.194.186-.339.758-.224.879 1.787 1.867.032 3.288-.66 4.729-1.88 3.91-1.7 4.155 1.066 7.7a14.527 14.527 0 0 1 2.6 10.442l4.36 3.084a41.565 41.565 0 0 0 1.076-4.308c.349-2.51 1.573-3.291 3.976-2.45 2.8.98 5.628 1.878 8.439 2.829a2.138 2.138 0 0 1 .825.489c1.535 1.571 3.047 3.165 4.552 4.737 1.265-1.665 1.355-4.335-.12-4.97-2.585-1.113-2.611-3.226-2.469-5.475.074-1.171.2-2.339.308-3.581 5.082-2.3 7.108-6.534 6.775-11.914-.176-2.836-1.494-5.679 1.07-8.142-.581-.389-.826-.592-1.1-.734-2.458-1.258-2.678-2.005-1.375-4.485a2.426 2.426 0 0 0 .31-1.307c-.271-2.366-.793-4.718-.879-7.088-.109-2.993.256-6 .154-8.994a24.264 24.264 0 0 0-.97-5.663c-1.2-4.254-1.676-8.376.821-12.394a14.615 14.615 0 0 0 1.074-3.208c.8-2.449 1.659-4.881 2.393-7.349a48.641 48.641 0 0 0 1.527-6.065c1.269-7.849 2.732-15.646 7.4-22.322a8.512 8.512 0 0 0 1.874-6.28c-.59-4.326 1.338-7.576 4.565-10.1 2.607-2.04 5.463-3.757 8.151-5.7 5.057-3.653 10.349-7.131 11.67-13.93a1.445 1.445 0 0 1 .525-.8c2.267-1.694 1.806-3.592.666-5.75a5.092 5.092 0 0 1 4.426-7.558c1.234-.041 2.05-.244 2.075-1.688.006-.336.377-.663.569-1 1.584-2.768 3.575-5.393 4.621-8.351a16.114 16.114 0 0 1 3.807-6.317 12.8 12.8 0 0 0 2.316-3.541c.681-1.431.839-3.151 1.676-4.457a14.182 14.182 0 0 0 2.15-7.065c.187-2.91 1-5.8 3.483-7.724 1.861-1.441 3.886-2.669 5.137-3.516l-.917-7.087c-.1-.786.065-1.785-.357-2.321-1.849-2.355-.974-4.532.074-6.814a10.438 10.438 0 0 0 1.16-3.6c.291-5.417 1.155-10.521 5.952-14.011a1.749 1.749 0 0 0 .445-1.046c.765-4.286 1.386-8.6 2.289-12.858.948-4.467 2.193-8.87 3.212-13.325a3.172 3.172 0 0 0-.517-1.921c-1.973-3.676-2.223-7.253.007-10.989a13.742 13.742 0 0 0 1.816-5.164c.779-6.172 1.119-12.4 2-18.558.748-5.241 2.734-10.28 2.008-15.764-.2-1.481.778-3.131 1.271-4.685.654-2.059 1.808-4.067 1.961-6.155.411-5.56.473-11.149.529-16.728.026-2.625.394-4.718 3.344-5.708.892-.3 1.625-1.74 1.927-2.8.122-.429-1-1.408-1.735-1.852-4.946-3-5.349-12.123-.765-15.523a6.971 6.971 0 0 0 2.566-3.569 12.606 12.606 0 0 0-.253-5.029c-.411-2.245-.181-4.1 1.739-5.641a52.772 52.772 0 0 0 4.609-4.314 35.1 35.1 0 0 0 8.787-14.645c.92-3.143.146-6.744 2.158-9.752.248-.37.044-1.114-.084-1.652-1.056-4.425.17-8.261 2.786-11.855a23.706 23.706 0 0 0 1.949-4.111c1.385-1.573 4.436-1.016 5.422-3.88a4.722 4.722 0 0 1-1.038-.774c-.783-1.064-1.5-2.175-2.246-3.268a27.856 27.856 0 0 0 3.236-2.063 3.993 3.993 0 0 0 1.57-2.23c.218-2.984.187-5.99.153-8.986a2.8 2.8 0 0 0-.66-1.91c-5.043-4.335-7.208-9.965-7.683-16.426a6.613 6.613 0 0 0-.784-1.94 18.4 18.4 0 0 1-1.641-3.855 54.169 54.169 0 0 1-.73-7.47c-.394-10.693 2.123-20.185 11.033-27.178a20.312 20.312 0 0 0 4.893-5.632 6.748 6.748 0 0 1 3.591-3.263c2.139-.819 4.224-1.78 6.7-2.837a7.984 7.984 0 0 0-7.811-2.568zm-213.04 348.451a3.17 3.17 0 0 1 .168-.186c.119-.124.248-.247.374-.37-.126.123-.255.247-.374.37-.06.062-.116.124-.168.186zm-16.455-146.133a3.315 3.315 0 0 1 0 .001zm-.414.373c-.148.123-.3.246-.436.37.135-.125.289-.247.435-.37zm34.492 160.012q-.086-.08-.183-.159c-.129-.106-.27-.21-.406-.314.137.1.278.209.406.314q.099.079.184.159zm-25.456 25.862a4.58 4.58 0 0 1 .341.318 4.58 4.58 0 0 0-.34-.318zm30.294-17.173c-.2.173-.42.345-.589.519-.167-.166-.376-.327-.576-.489.2.162.408.323.576.489.168-.174.384-.346.589-.519a4.665 4.665 0 0 0 .379-.347 4.665 4.665 0 0 1-.378.347zm92.114-352.347a3.8 3.8 0 0 0 .177-.224c.116-.157.23-.326.344-.49-.115.164-.229.333-.344.49a3.408 3.408 0 0 1-.175.224zm2.891 27.029a3.293 3.293 0 0 0-.357.412 3.293 3.293 0 0 1 .359-.412zm.418-.395c.141-.131.28-.263.406-.4a5.67 5.67 0 0 1-.404.401zm-2.545-4.745c.174.2.335.434.5.659-.163-.224-.324-.459-.498-.658z" transform="translate(-2418.888 -877.704)" style="fill:#02080c"/>
</svg>
