<svg xmlns="http://www.w3.org/2000/svg" width="240" height="80" viewBox="0 0 240 80">
    <defs>
        <clipPath id="x6silqvd0a">
            <path data-name="路径 23690" d="M858.834 557.231a6.165 6.165 0 0 1-4.981 6.06 4.235 4.235 0 0 1-2.649-.456l5.785 3.147a4.259 4.259 0 0 0 2.649.457 6.168 6.168 0 0 0 4.981-6.062 4.911 4.911 0 0 0-1.219-3.352l-5.785-3.147a4.893 4.893 0 0 1 1.219 3.353" transform="translate(-851.204 -553.878)" style="fill:none"/>
        </clipPath>
        <clipPath id="b0xwv7267b">
            <path data-name="路径 23694" d="m864.907 550.374 5.785 3.147c-.905-.994-.2-2.49-.006-2.864l-5.786-3.147c-.2.374-.9 1.868.006 2.864" transform="translate(-864.454 -547.51)" style="fill:none"/>
        </clipPath>
        <clipPath id="6105b2zfxc">
            <path data-name="路径 23700" d="M865.389 534.106a6.338 6.338 0 0 1-1.242 3.712l5.785 3.147a6.335 6.335 0 0 0 1.242-3.712 4.646 4.646 0 0 0-2.3-4.21q-2.889-1.575-5.784-3.145a4.643 4.643 0 0 1 2.3 4.208" transform="translate(-863.085 -529.898)" style="fill:none"/>
        </clipPath>
        <clipPath id="rm1qydda1d">
            <path data-name="路径 23703" d="m840.214 575.812 5.785 3.146a10.854 10.854 0 0 1-4.676-5.786l-5.784-3.147a10.849 10.849 0 0 0 4.675 5.788" transform="translate(-835.539 -570.024)" style="fill:none"/>
        </clipPath>
        <clipPath id="ofromw5xae">
            <path data-name="路径 23706" d="m833.723 567.68 5.784 3.147a10.877 10.877 0 0 0-1.483-1.916l-5.785-3.147a10.919 10.919 0 0 1 1.484 1.916" transform="translate(-832.239 -565.764)" style="fill:none"/>
        </clipPath>
        <clipPath id="krdl9aw41f">
            <path data-name="路径 23711" d="m855.984 519.242 5.787 3.147a7.12 7.12 0 0 1 4.462.813q-2.892-1.57-5.784-3.146a7.139 7.139 0 0 0-3.437-.888 7.348 7.348 0 0 0-1.028.073" transform="translate(-855.984 -519.169)" style="fill:none"/>
        </clipPath>
        <clipPath id="41ft7wwo3g">
            <path data-name="路径 23714" d="m831.1 563.293 5.785 3.147a4.7 4.7 0 0 1-.933-2.02l-5.785-3.146a4.72 4.72 0 0 0 .933 2.019" transform="translate(-830.164 -561.274)" style="fill:none"/>
        </clipPath>
        <clipPath id="eof3l45buh">
            <path data-name="路径 23718" d="m832.815 541.375 5.786 3.147a21.48 21.48 0 0 0 1.392-2.508l-5.786-3.147a21.14 21.14 0 0 1-1.392 2.507" transform="translate(-832.815 -538.868)" style="fill:none"/>
        </clipPath>
        <clipPath id="1yuius34ii">
            <path data-name="路径 23723" d="m830.5 546.639 5.784 3.146a7.417 7.417 0 0 1 1.042-2.2l-5.786-3.147a7.407 7.407 0 0 0-1.041 2.2" transform="translate(-830.501 -544.443)" style="fill:none"/>
        </clipPath>
        <clipPath id="xlmgump6rj">
            <path data-name="路径 23732" d="m835.911 528.117 5.786 3.147c1.776-4.737 5.153-8.24 9.028-8.785l-5.787-3.147c-3.873.543-7.248 4.048-9.027 8.785" transform="translate(-835.911 -519.332)" style="fill:none"/>
        </clipPath>
        <clipPath id="900jqzk8qk">
            <path data-name="路径 23740" d="m711.186 566.075 5.784 3.146a1.662 1.662 0 0 1 1.029-.508l-5.785-3.147a1.648 1.648 0 0 0-1.028.509" transform="translate(-711.186 -565.566)" style="fill:none"/>
        </clipPath>
        <clipPath id="jcud85tq3l">
            <path data-name="路径 23749" d="m714.924 574.567-.03-.016.03.016M709 571.328a1.236 1.236 0 0 0 .143.093q2.876 1.562 5.756 3.13a.808.808 0 0 1-.115-.076c-2.381-1.878-.423-3.943.357-4.631l-5.784-3.146c-.779.688-2.738 2.752-.357 4.63" transform="translate(-707.853 -566.698)" style="fill:none"/>
        </clipPath>
        <clipPath id="nwrxwctz8m">
            <path data-name="路径 23764" d="m771.266 558.784-.015-.009.015.009m1.141-.144a1.164 1.164 0 0 1-.554.234.944.944 0 0 1-.587-.09l3.248 1.766a.951.951 0 0 0 .6.1 1.144 1.144 0 0 0 .554-.233 1.37 1.37 0 0 0 .4-.491l-3.264-1.777a1.374 1.374 0 0 1-.4.495" transform="translate(-771.251 -558.145)" style="fill:none"/>
        </clipPath>
        <clipPath id="q7ca117eqn">
            <path data-name="路径 23767" d="M773.991 554.305a1.138 1.138 0 0 1 .393.654l3.263 1.773a1.128 1.128 0 0 0-.4-.651.918.918 0 0 0-.1-.068l-3.216-1.748c.02.012.04.026.059.04m-.059-.04a.458.458 0 0 0-.046-.025l.046.025" transform="translate(-773.885 -554.24)" style="fill:none"/>
        </clipPath>
        <clipPath id="gg4n7kqa3o">
            <path data-name="路径 23770" d="m770.14 560.6 3.263 1.773a1.555 1.555 0 0 1-.338-.252l-3.262-1.775a1.54 1.54 0 0 0 .336.255" transform="translate(-769.804 -560.348)" style="fill:none"/>
        </clipPath>
        <clipPath id="c450u4d7gp">
            <path data-name="路径 23787" d="m774.64 554.542-.035-.019zm-4.2-1.936a1.758 1.758 0 0 0-.7.25 2.148 2.148 0 0 0-.572.527 2.311 2.311 0 0 0-.362.669 2.194 2.194 0 0 0-.124.74 1.933 1.933 0 0 0 .132.711 1.728 1.728 0 0 0 .372.577l3.262 1.775a1.718 1.718 0 0 1-.372-.579 1.955 1.955 0 0 1-.132-.71 2.183 2.183 0 0 1 .126-.741 2.245 2.245 0 0 1 .362-.666 2.08 2.08 0 0 1 .571-.53 1.819 1.819 0 0 1 .693-.248 1.513 1.513 0 0 1 .834.108l.074.036-3.228-1.757a1.178 1.178 0 0 0-.107-.052 1.458 1.458 0 0 0-.6-.125 1.622 1.622 0 0 0-.236.017" transform="translate(-768.683 -552.589)" style="fill:none"/>
        </clipPath>
        <clipPath id="2xx92nwsaq">
            <path data-name="路径 23802" d="M760.616 560.272h-.008.008m1.151-.138a1.174 1.174 0 0 1-.553.231.932.932 0 0 1-.6-.093q1.63.886 3.254 1.772a.958.958 0 0 0 .607.1 1.162 1.162 0 0 0 .552-.234 1.372 1.372 0 0 0 .4-.494l-3.263-1.777a1.377 1.377 0 0 1-.4.5" transform="translate(-760.608 -559.637)" style="fill:none"/>
        </clipPath>
        <clipPath id="5sju4nldnr">
            <path data-name="路径 23805" d="M763.354 555.8a1.145 1.145 0 0 1 .4.651l3.26 1.776a1.127 1.127 0 0 0-.395-.655.783.783 0 0 0-.1-.065l-3.264-1.777a.877.877 0 0 1 .1.07" transform="translate(-763.249 -555.731)" style="fill:none"/>
        </clipPath>
        <clipPath id="8nko8jevjs">
            <path data-name="路径 23818" d="M759.8 554.1a1.825 1.825 0 0 0-.7.248 2.125 2.125 0 0 0-.573.532 2.4 2.4 0 0 0-.363.666 2.317 2.317 0 0 0-.121.739 1.838 1.838 0 0 0 .133.711 1.71 1.71 0 0 0 .37.579 1.431 1.431 0 0 0 .337.251l3.261 1.776a1.562 1.562 0 0 1-.336-.254 1.663 1.663 0 0 1-.369-.576 1.893 1.893 0 0 1-.134-.713 2.274 2.274 0 0 1 .122-.738 2.4 2.4 0 0 1 .362-.666 2.176 2.176 0 0 1 .574-.532 1.8 1.8 0 0 1 .7-.248 1.482 1.482 0 0 1 .831.109c.041.018.078.035.114.054l-3.262-1.771c-.037-.02-.075-.041-.112-.058a1.468 1.468 0 0 0-.6-.124 1.782 1.782 0 0 0-.232.016" transform="translate(-758.046 -554.085)" style="fill:none"/>
        </clipPath>
        <clipPath id="6j3k3h60ft">
            <path data-name="路径 23833" d="M748.978 556.028a1.258 1.258 0 0 0-.35.409l3.263 1.776a1.3 1.3 0 0 1 .349-.411 1 1 0 0 1 .455-.189l-3.262-1.773a.991.991 0 0 0-.454.188" transform="translate(-748.628 -555.84)" style="fill:none"/>
        </clipPath>
        <clipPath id="o34818fycu">
            <path data-name="路径 23848" d="M742.524 562.838a1.187 1.187 0 0 1-.554.235.965.965 0 0 1-.6-.1l3.262 1.776a.955.955 0 0 0 .6.094 1.161 1.161 0 0 0 .553-.233 1.372 1.372 0 0 0 .4-.493l-3.262-1.777a1.388 1.388 0 0 1-.4.5" transform="translate(-741.371 -562.342)" style="fill:none"/>
        </clipPath>
        <clipPath id="se075k9k7v">
            <path data-name="路径 23851" d="M744.1 558.5a1.125 1.125 0 0 1 .395.651l3.262 1.776a1.129 1.129 0 0 0-.395-.653.657.657 0 0 0-.106-.066l-3.237-1.763a.861.861 0 0 1 .081.055m-.081-.055-.024-.013z" transform="translate(-743.997 -558.437)" style="fill:none"/>
        </clipPath>
        <clipPath id="uf0krfkrww">
            <path data-name="路径 23864" d="m742.9 562.3-.025-.013.025.013m-2.347-5.5a1.783 1.783 0 0 0-.7.248 2.13 2.13 0 0 0-.574.53 2.4 2.4 0 0 0-.358.665 2.2 2.2 0 0 0-.123.742 1.87 1.87 0 0 0 .131.71 1.666 1.666 0 0 0 .371.576 1.418 1.418 0 0 0 .334.255l3.238 1.759a1.423 1.423 0 0 1-.309-.238 1.634 1.634 0 0 1-.37-.576 1.913 1.913 0 0 1-.135-.711 2.233 2.233 0 0 1 .125-.74 2.284 2.284 0 0 1 .361-.664 2.142 2.142 0 0 1 .573-.532 1.776 1.776 0 0 1 .7-.249 1.5 1.5 0 0 1 .836.111c.036.013.072.033.107.049l-3.264-1.772c-.034-.021-.071-.038-.107-.055a1.506 1.506 0 0 0-.6-.124 1.689 1.689 0 0 0-.23.016" transform="translate(-738.799 -556.79)" style="fill:none"/>
        </clipPath>
        <clipPath id="w7hzgq4dwx">
            <path data-name="路径 23874" d="M733.323 564.621a.886.886 0 0 1-.568-.1l3.263 1.776a.9.9 0 0 0 .568.094 1.272 1.272 0 0 0 .832-.488l-3.263-1.777a1.265 1.265 0 0 1-.834.49" transform="translate(-732.755 -564.131)" style="fill:none"/>
        </clipPath>
        <clipPath id="1m6r3hgahy">
            <path data-name="路径 23880" d="M735.617 559.879a1.1 1.1 0 0 1 .342.848 1.519 1.519 0 0 1-.342.981l3.263 1.777a1.527 1.527 0 0 0 .34-.985 1.093 1.093 0 0 0-.339-.845 1.025 1.025 0 0 0-.209-.152q-1.624-.882-3.246-1.766a.96.96 0 0 1 .191.142m-.191-.142-.016-.009.016.009" transform="translate(-735.41 -559.728)" style="fill:none"/>
        </clipPath>
        <clipPath id="qazux1ifqz">
            <path data-name="路径 23883" d="M731.849 566.022q1.63.893 3.262 1.777a1.562 1.562 0 0 1-.314-.234l-3.261-1.776a1.316 1.316 0 0 0 .313.233" transform="translate(-731.536 -565.789)" style="fill:none"/>
        </clipPath>
        <clipPath id="d8p6si08lA">
            <path data-name="路径 23892" d="m736.9 559.953-.017-.01zm-4.182-1.914a1.757 1.757 0 0 0-.643.223 2.082 2.082 0 0 0-.542.483l3.261 1.772a2.066 2.066 0 0 1 .545-.478 1.655 1.655 0 0 1 .641-.223 1.543 1.543 0 0 1 .692.04 1.293 1.293 0 0 1 .211.088l-3.246-1.767a1.18 1.18 0 0 0-.227-.093 1.375 1.375 0 0 0-.426-.063 1.965 1.965 0 0 0-.266.019" transform="translate(-731.536 -558.02)" style="fill:none"/>
        </clipPath>
    </defs>
    <g data-name="组 24864">
        <g data-name="组 24954">
            <g data-name="组 24947">
                <g data-name="组 24864">
                    <path data-name="路径 23679" d="m856.989 565.982-5.784-3.147a4.232 4.232 0 0 0 2.648.456 6.164 6.164 0 0 0 4.981-6.06 4.891 4.891 0 0 0-1.219-3.353l5.785 3.147a4.91 4.91 0 0 1 1.219 3.352 6.167 6.167 0 0 1-4.981 6.062 4.255 4.255 0 0 1-2.649-.457" transform="translate(-771.741 -513.294)" style="fill:#866c31"/>
                </g>
                <g data-name="组 24866">
                    <g data-name="组 24865" style="clip-path:url(#x6silqvd0a)" transform="translate(79.464 40.584)">
                        <path data-name="路径 23680" d="m856.989 576.943-5.784-3.147c.049.028.1.054.148.077l5.785 3.147c-.05-.024-.1-.049-.149-.077" transform="translate(-851.205 -564.839)" style="fill:#866c31"/>
                        <path data-name="路径 23681" d="m857.321 577.115-5.785-3.147a4.164 4.164 0 0 0 .778.292l5.789 3.146a4.189 4.189 0 0 1-.782-.291" transform="translate(-851.387 -564.934)" style="fill:#866c31"/>
                        <path data-name="路径 23682" d="m859.055 577.336-5.789-3.146a4.428 4.428 0 0 0 1.721.086 5.058 5.058 0 0 0 1.456-.436l5.784 3.147a5.07 5.07 0 0 1-1.455.437 4.362 4.362 0 0 1-1.717-.089" transform="translate(-852.339 -564.863)" style="fill:#866c31"/>
                        <path data-name="路径 23683" d="m866.115 576.417-5.784-3.147a5.668 5.668 0 0 0 .805-.465l5.787 3.147a5.854 5.854 0 0 1-.808.465" transform="translate(-856.227 -564.294)" style="fill:#866c31"/>
                        <path data-name="路径 23684" d="m867.909 575.369-5.787-3.147a6.009 6.009 0 0 0 .6-.476l5.786 3.148a6.465 6.465 0 0 1-.6.475" transform="translate(-857.212 -563.711)" style="fill:#866c31"/>
                        <path data-name="路径 23685" d="m869.243 574.268-5.786-3.148a5.788 5.788 0 0 0 .507-.512l5.786 3.146a5.527 5.527 0 0 1-.506.514" transform="translate(-857.947 -563.084)" style="fill:#866c31"/>
                        <path data-name="路径 23686" d="m870.37 573.058-5.786-3.146a6 6 0 0 0 .448-.568l5.785 3.151a6.116 6.116 0 0 1-.447.564" transform="translate(-858.567 -562.389)" style="fill:#866c31"/>
                        <path data-name="路径 23687" d="m871.365 571.7-5.784-3.151a6.6 6.6 0 0 0 .406-.653l5.785 3.146a6.932 6.932 0 0 1-.406.657" transform="translate(-859.115 -561.59)" style="fill:#866c31"/>
                        <path data-name="路径 23688" d="m872.266 570.014-5.785-3.146a6.44 6.44 0 0 0 .375-.837l5.786 3.147a6.423 6.423 0 0 1-.376.836" transform="translate(-859.611 -560.566)" style="fill:#866c31"/>
                        <path data-name="路径 23689" d="m872.081 562.49-5.786-3.147a6.193 6.193 0 0 0 .385-2.112 4.894 4.894 0 0 0-1.219-3.353l5.785 3.147a4.911 4.911 0 0 1 1.219 3.352 6.212 6.212 0 0 1-.384 2.113" transform="translate(-859.049 -553.878)" style="fill:#866c31"/>
                    </g>
                </g>
                <g data-name="组 24867">
                    <path data-name="路径 23691" d="m870.692 553.52-5.785-3.147c-.906-1-.2-2.49-.006-2.864l5.785 3.147c-.2.373-.9 1.869.006 2.864" transform="translate(-779.031 -509.79)" style="fill:#866c31"/>
                </g>
                <g data-name="组 24869">
                    <g data-name="组 24868" style="clip-path:url(#b0xwv7267b)" transform="translate(85.423 37.72)">
                        <path data-name="路径 23692" d="M870.691 554.146 864.906 551a2.278 2.278 0 0 1-.235-2.352l5.786 3.15a2.275 2.275 0 0 0 .234 2.349" transform="translate(-864.454 -548.136)" style="fill:#866c31"/>
                        <path data-name="路径 23693" d="m870.723 551.171-5.786-3.15a4.548 4.548 0 0 1 .228-.512l5.786 3.147a3.841 3.841 0 0 0-.228.514" transform="translate(-864.72 -547.509)" style="fill:#866c31"/>
                    </g>
                </g>
                <g data-name="组 24870">
                    <path data-name="路径 23695" d="M863.084 529.9q2.893 1.571 5.785 3.145a4.645 4.645 0 0 1 2.3 4.21 6.332 6.332 0 0 1-1.242 3.712l-5.786-3.147a6.33 6.33 0 0 0 1.243-3.711 4.642 4.642 0 0 0-2.3-4.208" transform="translate(-778.278 -500.098)" style="fill:#866c31"/>
                </g>
                <g data-name="组 24872">
                    <g data-name="组 24871" style="clip-path:url(#6105b2zfxc)" transform="translate(84.807 29.8)">
                        <path data-name="路径 23696" d="m871.231 550.528-5.786-3.147.077-.106 5.786 3.146-.077.107" transform="translate(-864.384 -539.461)" style="fill:#866c31"/>
                        <path data-name="路径 23697" d="m871.4 549.611-5.786-3.146a6.713 6.713 0 0 0 .407-.661l5.786 3.145a7.515 7.515 0 0 1-.407.662" transform="translate(-864.478 -538.651)" style="fill:#866c31"/>
                        <path data-name="路径 23698" d="m872.306 547.925-5.786-3.145a6.458 6.458 0 0 0 .377-.837l5.783 3.145a6.126 6.126 0 0 1-.374.837" transform="translate(-864.975 -537.626)" style="fill:#866c31"/>
                        <path data-name="路径 23699" d="m870.789 539.359-5.783-3.146a6.132 6.132 0 0 0 .382-2.108 4.642 4.642 0 0 0-2.3-4.208l5.785 3.145a4.648 4.648 0 0 1 2.3 4.21 6.035 6.035 0 0 1-.384 2.106" transform="translate(-863.084 -529.898)" style="fill:#866c31"/>
                    </g>
                </g>
                <g data-name="组 24873">
                    <path data-name="路径 23701" d="M846 578.958q-2.893-1.571-5.785-3.146a10.849 10.849 0 0 1-4.675-5.788l5.784 3.147a10.854 10.854 0 0 0 4.676 5.787" transform="translate(-763.12 -522.18)" style="fill:#866c31"/>
                </g>
                <g data-name="组 24875">
                    <g data-name="组 24874" style="clip-path:url(#rm1qydda1d)" transform="translate(72.419 47.844)">
                        <path data-name="路径 23702" d="m846 578.958-5.785-3.146a10.849 10.849 0 0 1-4.675-5.788l5.784 3.147a10.854 10.854 0 0 0 4.676 5.787" transform="translate(-835.539 -570.024)" style="fill:#866c31"/>
                    </g>
                </g>
                <g data-name="组 24876">
                    <path data-name="路径 23704" d="m839.508 570.827-5.784-3.147a10.91 10.91 0 0 0-1.484-1.916l5.785 3.147a10.856 10.856 0 0 1 1.483 1.916" transform="translate(-761.304 -519.835)" style="fill:#866c31"/>
                </g>
                <g data-name="组 24878">
                    <g data-name="组 24877" style="clip-path:url(#ofromw5xae)" transform="translate(70.935 45.929)">
                        <path data-name="路径 23705" d="m839.508 570.827-5.784-3.147a10.91 10.91 0 0 0-1.484-1.916l5.785 3.147a10.856 10.856 0 0 1 1.483 1.916" transform="translate(-832.239 -565.764)" style="fill:#866c31"/>
                    </g>
                </g>
                <g data-name="组 24879">
                    <path data-name="路径 23707" d="M860.45 520.057q2.891 1.57 5.783 3.146a7.122 7.122 0 0 0-4.463-.813l-5.787-3.147a7.127 7.127 0 0 1 4.466.815" transform="translate(-774.371 -494.194)" style="fill:#866c31"/>
                </g>
                <g data-name="组 24881">
                    <g data-name="组 24880" style="clip-path:url(#krdl9aw41f)" transform="translate(81.613 24.975)">
                        <path data-name="路径 23708" d="m861.771 522.389-5.787-3.147a7.125 7.125 0 0 1 2.78.146l5.784 3.15a7.039 7.039 0 0 0-2.777-.148" transform="translate(-855.984 -519.169)" style="fill:#866c31"/>
                        <path data-name="路径 23709" d="m867.95 522.806-5.784-3.15a7.387 7.387 0 0 1 1.4.522l5.785 3.147a7.144 7.144 0 0 0-1.4-.52" transform="translate(-859.386 -519.437)" style="fill:#866c31"/>
                        <path data-name="路径 23710" d="m871.068 523.964-5.784-3.147c.1.046.191.094.284.147l5.784 3.146a4.718 4.718 0 0 0-.283-.146" transform="translate(-861.102 -520.076)" style="fill:#866c31"/>
                    </g>
                </g>
                <g data-name="组 24882">
                    <path data-name="路径 23712" d="m836.883 566.44-5.785-3.147a4.72 4.72 0 0 1-.933-2.019l5.785 3.146a4.7 4.7 0 0 0 .933 2.02" transform="translate(-760.162 -517.364)" style="fill:#866c31"/>
                </g>
                <g data-name="组 24884">
                    <g data-name="组 24883" style="clip-path:url(#41ft7wwo3g)" transform="translate(70.002 43.91)">
                        <path data-name="路径 23713" d="m836.883 566.44-5.785-3.147a4.72 4.72 0 0 1-.933-2.019l5.785 3.146a4.7 4.7 0 0 0 .933 2.02" transform="translate(-830.164 -561.274)" style="fill:#866c31"/>
                    </g>
                </g>
                <g data-name="组 24885">
                    <path data-name="路径 23715" d="m838.6 544.523-5.785-3.147a21.108 21.108 0 0 0 1.392-2.507l5.786 3.147a21.38 21.38 0 0 1-1.393 2.508" transform="translate(-761.621 -505.034)" style="fill:#866c31"/>
                </g>
                <g data-name="组 24887">
                    <g data-name="组 24886" style="clip-path:url(#eof3l45buh)" transform="translate(71.194 33.834)">
                        <path data-name="路径 23716" d="m838.6 545.711-5.785-3.147c.029-.046.462-.706.91-1.536l5.783 3.147c-.444.831-.878 1.489-.908 1.537" transform="translate(-832.815 -540.056)" style="fill:#866c31"/>
                        <path data-name="路径 23717" d="m840.623 542.986-5.783-3.147c.164-.308.333-.64.482-.971l5.786 3.147c-.151.331-.318.662-.484.971" transform="translate(-833.929 -538.868)" style="fill:#866c31"/>
                    </g>
                </g>
                <g data-name="组 24888">
                    <path data-name="路径 23719" d="m836.285 549.785-5.784-3.146a7.412 7.412 0 0 1 1.041-2.2l5.785 3.147a7.436 7.436 0 0 0-1.042 2.2" transform="translate(-760.347 -508.102)" style="fill:#866c31"/>
                </g>
                <g data-name="组 24890">
                    <g data-name="组 24889" style="clip-path:url(#1yuius34ii)" transform="translate(70.154 36.341)">
                        <path data-name="路径 23720" d="m836.285 551.868-5.784-3.146a3.486 3.486 0 0 1 .148-.495l5.785 3.147a4.107 4.107 0 0 0-.149.494" transform="translate(-830.501 -546.525)" style="fill:#866c31"/>
                        <path data-name="路径 23721" d="m836.617 550.33-5.785-3.147a6.432 6.432 0 0 1 .391-.853l5.785 3.147a6.436 6.436 0 0 0-.39.853" transform="translate(-830.683 -545.481)" style="fill:#866c31"/>
                        <path data-name="路径 23722" d="m837.486 548.438-5.784-3.147c.147-.275.317-.557.5-.849l5.785 3.147a12.86 12.86 0 0 0-.5.848" transform="translate(-831.162 -544.443)" style="fill:#866c31"/>
                    </g>
                </g>
                <g data-name="组 24891">
                    <path data-name="路径 23724" d="m841.7 531.264-5.786-3.147c1.779-4.737 5.154-8.242 9.028-8.785l5.786 3.147c-3.875.545-7.251 4.049-9.028 8.785" transform="translate(-763.324 -494.284)" style="fill:#866c31"/>
                </g>
                <g data-name="组 24893">
                    <g data-name="组 24892" style="clip-path:url(#xlmgump6rj)" transform="translate(72.587 25.048)">
                        <path data-name="路径 23725" d="m841.7 539.182-5.786-3.147a19.619 19.619 0 0 1 1.047-2.315l5.787 3.147a18.9 18.9 0 0 0-1.047 2.316" transform="translate(-835.91 -527.249)" style="fill:#866c31"/>
                        <path data-name="路径 23726" d="m844.025 534.786-5.787-3.147a17.114 17.114 0 0 1 1.046-1.7l5.785 3.147a17.068 17.068 0 0 0-1.044 1.7" transform="translate(-837.192 -525.17)" style="fill:#866c31"/>
                        <path data-name="路径 23727" d="m846.348 531.5-5.785-3.147a15.2 15.2 0 0 1 1.023-1.3l5.788 3.145a14.219 14.219 0 0 0-1.026 1.3" transform="translate(-838.471 -523.579)" style="fill:#866c31"/>
                        <path data-name="路径 23728" d="m848.626 528.9-5.788-3.145a13.128 13.128 0 0 1 1.047-1.061l5.785 3.147a12.608 12.608 0 0 0-1.044 1.059" transform="translate(-839.723 -522.281)" style="fill:#866c31"/>
                        <path data-name="路径 23729" d="m850.951 526.737-5.784-3.147a11.629 11.629 0 0 1 1.131-.9l5.784 3.149a11.617 11.617 0 0 0-1.131.9" transform="translate(-841.005 -521.18)" style="fill:#866c31"/>
                        <path data-name="路径 23730" d="m853.466 524.858-5.784-3.149a10.022 10.022 0 0 1 1.385-.8l5.786 3.148a9.656 9.656 0 0 0-1.387.8" transform="translate(-842.389 -520.199)" style="fill:#866c31"/>
                        <path data-name="路径 23731" d="m856.548 523.189-5.786-3.148a8.159 8.159 0 0 1 2.349-.708l5.787 3.147a8.173 8.173 0 0 0-2.35.71" transform="translate(-844.083 -519.332)" style="fill:#866c31"/>
                    </g>
                </g>
                <path data-name="路径 23733" d="m719.256 559.777-5.784-3.147 52.628-7.3 5.784 3.146z" transform="translate(-695.946 -510.79)" style="fill:#866c31"/>
                <g data-name="组 24894">
                    <path data-name="路径 23734" d="m716.97 569.222-5.784-3.146a1.649 1.649 0 0 1 1.029-.509l5.785 3.147a1.662 1.662 0 0 0-1.029.508" transform="translate(-694.688 -519.727)" style="fill:#866c31"/>
                </g>
                <g data-name="组 24896">
                    <g data-name="组 24895" style="clip-path:url(#900jqzk8qk)" transform="translate(16.498 45.84)">
                        <path data-name="路径 23735" d="m716.97 569.829-5.784-3.146s0-.006.009-.013l5.788 3.147-.013.012" transform="translate(-711.186 -566.174)" style="fill:#866c31"/>
                        <path data-name="路径 23736" d="m716.994 569.716-5.787-3.147a1.114 1.114 0 0 1 .082-.082l5.784 3.147a.755.755 0 0 0-.079.082" transform="translate(-711.198 -566.073)" style="fill:#866c31"/>
                        <path data-name="路径 23737" d="m717.173 569.495-5.784-3.146c.037-.032.085-.071.145-.114l5.784 3.15a1.758 1.758 0 0 0-.145.11" transform="translate(-711.298 -565.934)" style="fill:#866c31"/>
                        <path data-name="路径 23738" d="m717.5 569.216-5.785-3.15a1.656 1.656 0 0 1 .24-.138l5.785 3.147a1.758 1.758 0 0 0-.24.141" transform="translate(-711.475 -565.766)" style="fill:#866c31"/>
                        <path data-name="路径 23739" d="m718.03 568.876-5.785-3.147a2.012 2.012 0 0 1 .552-.163l5.785 3.147a1.925 1.925 0 0 0-.551.162" transform="translate(-711.769 -565.566)" style="fill:#866c31"/>
                    </g>
                </g>
                <g data-name="组 24897">
                    <path data-name="路径 23741" d="M787.333 526.241c5.7-.8 10.316 5.128 10.3 13.249s-4.654 15.346-10.357 16.148c-3.978.559-7.423-2.156-9.141-6.6a10.852 10.852 0 0 0-1.483-1.916 4.7 4.7 0 0 1-.933-2.02c-1.448.165-9.056 1.22-18.052 2.482-15.218 2.139-33.446 4.737-34.405 4.873a1.9 1.9 0 0 1-1.405-.285c-2.382-1.879-.423-3.943.357-4.631a1.656 1.656 0 0 1 1.028-.508l52.627-7.3a7.418 7.418 0 0 1 1.042-2.195 21.559 21.559 0 0 0 1.392-2.508c1.777-4.737 5.153-8.24 9.028-8.785m4.259 15.535c-.905-.994-.2-2.49-.006-2.864a6.339 6.339 0 0 0 1.242-3.712c.005-2.961-2.213-5.051-4.96-4.666a5.907 5.907 0 0 0-4.36 3.393c-.517.854-3.192 5.344-3.652 7.686a4.039 4.039 0 0 0 .42 3.286 21.756 21.756 0 0 0 3.8 4.957 4.179 4.179 0 0 0 3.758 1.334 6.168 6.168 0 0 0 4.981-6.062 4.913 4.913 0 0 0-1.219-3.352" transform="translate(-699.932 -498.046)" style="fill:#cca855"/>
                    <path data-name="路径 23742" d="m714.924 574.567-5.785-3.146a1.207 1.207 0 0 1-.143-.093c-2.381-1.878-.423-3.942.357-4.63l5.784 3.146c-.779.688-2.738 2.753-.357 4.631a.993.993 0 0 0 .144.091" transform="translate(-692.854 -520.35)" style="fill:#866c31"/>
                </g>
                <g data-name="组 24899">
                    <g data-name="组 24898" style="clip-path:url(#jcud85tq3l)" transform="translate(14.999 46.349)">
                        <path data-name="路径 23743" d="m714.922 576.793-5.785-3.146a1.224 1.224 0 0 1-.143-.093 2.338 2.338 0 0 1-.992-2.811l5.788 3.145a2.335 2.335 0 0 0 .988 2.813 1 1 0 0 0 .144.091" transform="translate(-707.851 -568.924)" style="fill:#866c31"/>
                        <path data-name="路径 23744" d="m713.976 573.382-5.788-3.146a3.586 3.586 0 0 1 .188-.414l5.786 3.146a2.844 2.844 0 0 0-.187.413" transform="translate(-708.037 -568.417)" style="fill:#866c31"/>
                        <path data-name="路径 23745" d="m714.393 572.469-5.786-3.146a4.158 4.158 0 0 1 .254-.408l5.786 3.146a3.9 3.9 0 0 0-.254.409" transform="translate(-708.268 -567.917)" style="fill:#866c31"/>
                        <path data-name="路径 23746" d="m714.957 571.512-5.786-3.146a5.557 5.557 0 0 1 .355-.447l5.784 3.146a5.437 5.437 0 0 0-.353.448" transform="translate(-708.578 -567.369)" style="fill:#866c31"/>
                        <path data-name="路径 23747" d="m715.745 570.445-5.785-3.145a6.682 6.682 0 0 1 .5-.505l5.785 3.146a6.332 6.332 0 0 0-.5.505" transform="translate(-709.013 -566.751)" style="fill:#866c31"/>
                        <path data-name="路径 23748" d="m716.862 569.887-5.785-3.146.049-.043 5.784 3.146-.048.043" transform="translate(-709.627 -566.698)" style="fill:#866c31"/>
                    </g>
                </g>
                <path data-name="路径 23750" d="m780.864 559.968-3.264-1.774.5-2.024 3.263 1.773z" transform="translate(-731.236 -514.556)" style="fill:#866c31"/>
                <path data-name="路径 23751" d="m782.75 552.468-3.262-1.776 1-2.87 3.263 1.773z" transform="translate(-732.275 -509.962)" style="fill:#866c31"/>
                <path data-name="路径 23752" d="m784.971 549.483-3.263-1.773.658-.091 3.262 1.773z" transform="translate(-733.497 -509.85)" style="fill:#866c31"/>
                <path data-name="路径 23753" d="m777.968 559.8-3.264-1.777.688-.1 3.264 1.773z" transform="translate(-729.642 -515.524)" style="fill:#866c31"/>
                <g data-name="组 24900">
                    <path data-name="路径 23754" d="M774.514 560.549q-1.632-.886-3.263-1.774a.938.938 0 0 0 .6.1 1.162 1.162 0 0 0 .554-.234 1.369 1.369 0 0 0 .4-.494l3.264 1.777a1.371 1.371 0 0 1-.4.491 1.141 1.141 0 0 1-.553.233.948.948 0 0 1-.6-.1" transform="translate(-727.742 -515.642)" style="fill:#866c31"/>
                </g>
                <g data-name="组 24902">
                    <g data-name="组 24901" style="clip-path:url(#nwrxwctz8m)" transform="translate(43.509 42.503)">
                        <path data-name="路径 23755" d="m774.514 561.32-3.263-1.774.033.018 3.262 1.773a.212.212 0 0 1-.032-.017" transform="translate(-771.251 -558.916)" style="fill:#866c31"/>
                        <path data-name="路径 23756" d="m774.586 561.359-3.261-1.773a.8.8 0 0 0 .169.06l3.26 1.775a.741.741 0 0 1-.168-.062" transform="translate(-771.292 -558.938)" style="fill:#866c31"/>
                        <path data-name="路径 23757" d="m774.96 561.4-3.26-1.775a.977.977 0 0 0 .4.02 1.108 1.108 0 0 0 .333-.1l3.262 1.775a1.055 1.055 0 0 1-.331.1.978.978 0 0 1-.4-.017" transform="translate(-771.498 -558.914)" style="fill:#866c31"/>
                        <path data-name="路径 23758" d="m776.593 561.2-3.263-1.776a.974.974 0 0 0 .176-.1l3.261 1.776a1.742 1.742 0 0 1-.174.1" transform="translate(-772.395 -558.791)" style="fill:#866c31"/>
                        <path data-name="路径 23759" d="m776.982 560.973-3.261-1.776c.014-.012.031-.022.045-.034a.815.815 0 0 0 .079-.067l3.264 1.777a1.008 1.008 0 0 1-.08.063.608.608 0 0 1-.048.037" transform="translate(-772.61 -558.668)" style="fill:#866c31"/>
                        <path data-name="路径 23760" d="M777.262 560.745 774 558.968c.037-.033.071-.068.107-.1l3.263 1.775a2.63 2.63 0 0 1-.105.106" transform="translate(-772.763 -558.54)" style="fill:#866c31"/>
                        <path data-name="路径 23761" d="m777.5 560.5-3.263-1.775c.031-.038.063-.078.09-.116l3.263 1.772a1.338 1.338 0 0 1-.091.12" transform="translate(-772.893 -558.398)" style="fill:#866c31"/>
                        <path data-name="路径 23762" d="m777.7 560.194-3.263-1.772a1.446 1.446 0 0 0 .091-.149l3.262 1.776a1.62 1.62 0 0 1-.089.146" transform="translate(-773.004 -558.215)" style="fill:#866c31"/>
                        <path data-name="路径 23763" d="m777.9 559.978-3.261-1.776a.372.372 0 0 0 .029-.057l3.264 1.776c-.012.017-.021.037-.032.057" transform="translate(-773.115 -558.145)" style="fill:#866c31"/>
                    </g>
                </g>
                <g data-name="组 24903">
                    <path data-name="路径 23765" d="m773.885 554.24 3.262 1.773a.91.91 0 0 1 .1.068 1.129 1.129 0 0 1 .4.651l-3.263-1.773a1.136 1.136 0 0 0-.393-.654.652.652 0 0 0-.106-.065" transform="translate(-729.192 -513.494)" style="fill:#866c31"/>
                </g>
                <g data-name="组 24905">
                    <g data-name="组 24904" style="clip-path:url(#q7ca117eqn)" transform="translate(44.693 40.746)">
                        <path data-name="路径 23766" d="m777.647 556.732-3.263-1.773a1.147 1.147 0 0 0-.393-.655.7.7 0 0 0-.106-.065l3.262 1.774a.9.9 0 0 1 .1.068 1.127 1.127 0 0 1 .4.651" transform="translate(-773.885 -554.24)" style="fill:#866c31"/>
                    </g>
                </g>
                <g data-name="组 24906">
                    <path data-name="路径 23768" d="m773.4 562.376-3.264-1.773a1.542 1.542 0 0 1-.336-.255l3.262 1.775a1.543 1.543 0 0 0 .338.252" transform="translate(-726.945 -516.855)" style="fill:#866c31"/>
                </g>
                <g data-name="组 24908">
                    <g data-name="组 24907" style="clip-path:url(#gg4n7kqa3o)" transform="translate(42.858 43.493)">
                        <path data-name="路径 23769" d="m773.4 562.376-3.264-1.773a1.542 1.542 0 0 1-.336-.255l3.262 1.775a1.543 1.543 0 0 0 .338.252" transform="translate(-769.803 -560.348)" style="fill:#866c31"/>
                    </g>
                </g>
                <path data-name="路径 23771" d="m786.48 551.56-1.357 3.778-.545 2.01-.6.083.5-2.025-1.216-3.391.657-.091.911 2.6 1-2.873z" transform="translate(-734.348 -512.019)" style="fill:#cca855"/>
                <path data-name="路径 23772" d="m780.48 553.788-3.262-1.772-1.216-3.4 3.262 1.776z" transform="translate(-730.356 -510.401)" style="fill:#866c31"/>
                <path data-name="路径 23773" d="M779.263 550.285 776 548.509l.656-.091 3.263 1.776z" transform="translate(-730.356 -510.29)" style="fill:#866c31"/>
                <path data-name="路径 23774" d="m773.422 557.919-3.263-1.772 2.174-.306 3.263 1.773z" transform="translate(-727.141 -514.374)" style="fill:#866c31"/>
                <g data-name="组 24909">
                    <path data-name="路径 23775" d="M779.444 558.389v.1l-2.864.4a1.043 1.043 0 0 0 .384.685.925.925 0 0 0 .731.179 1.144 1.144 0 0 0 .554-.233 1.368 1.368 0 0 0 .4-.491l.688-.1a2.522 2.522 0 0 1-.659 1.025 1.8 1.8 0 0 1-.982.46 1.564 1.564 0 0 1-.687-.046 1.428 1.428 0 0 1-.566-.349 1.71 1.71 0 0 1-.371-.579 1.944 1.944 0 0 1-.133-.71 2.184 2.184 0 0 1 .126-.741 2.228 2.228 0 0 1 .362-.666 2.08 2.08 0 0 1 .571-.53 1.811 1.811 0 0 1 .693-.248 1.5 1.5 0 0 1 .834.107 1.487 1.487 0 0 1 .636.543 1.648 1.648 0 0 1 .219.517 2.789 2.789 0 0 1 .067.67m-2.847-.082 2.175-.306a1.127 1.127 0 0 0-.4-.651.877.877 0 0 0-.675-.158 1.209 1.209 0 0 0-.7.355 1.56 1.56 0 0 0-.409.76" transform="translate(-730.319 -514.756)" style="fill:#cca855"/>
                    <path data-name="路径 23776" d="m771.377 552.766 3.263 1.776c-.034-.02-.072-.037-.109-.055a1.512 1.512 0 0 0-.834-.108 1.818 1.818 0 0 0-.693.248 2.073 2.073 0 0 0-.571.53 2.234 2.234 0 0 0-.362.666 2.177 2.177 0 0 0-.127.741 1.946 1.946 0 0 0 .133.71 1.717 1.717 0 0 0 .371.579l-3.262-1.775a1.741 1.741 0 0 1-.372-.577 1.933 1.933 0 0 1-.132-.711 2.2 2.2 0 0 1 .125-.74 2.311 2.311 0 0 1 .363-.669 2.155 2.155 0 0 1 .571-.527 1.768 1.768 0 0 1 .7-.249 1.494 1.494 0 0 1 .833.108 1.172 1.172 0 0 1 .108.052" transform="translate(-726.328 -512.585)" style="fill:#866c31"/>
                </g>
                <g data-name="组 24911">
                    <g data-name="组 24910" style="clip-path:url(#c450u4d7gp)" transform="translate(42.354 40.004)">
                        <path data-name="路径 23777" d="m772.449 559.579-3.262-1.775a1.748 1.748 0 0 1-.373-.577 1.942 1.942 0 0 1-.131-.711 2.194 2.194 0 0 1 .124-.74c0-.017.011-.035.017-.052l3.263 1.778-.017.047a2.186 2.186 0 0 0-.126.741 1.947 1.947 0 0 0 .133.71 1.707 1.707 0 0 0 .371.579" transform="translate(-768.683 -554.314)" style="fill:#866c31"/>
                        <path data-name="路径 23778" d="M772.259 557.156 769 555.379a2.4 2.4 0 0 1 .129-.283l3.263 1.774a2.172 2.172 0 0 0-.129.286" transform="translate(-768.855 -553.969)" style="fill:#866c31"/>
                        <path data-name="路径 23779" d="m772.545 556.581-3.263-1.774c.045-.081.093-.159.146-.237l3.263 1.776a2.138 2.138 0 0 0-.145.235" transform="translate(-769.013 -553.679)" style="fill:#866c31"/>
                        <path data-name="路径 23780" d="m772.87 556.052-3.263-1.776c.022-.032.047-.063.071-.1s.077-.1.117-.143l3.264 1.775c-.041.048-.08.094-.118.143a.946.946 0 0 0-.072.1" transform="translate(-769.191 -553.385)" style="fill:#866c31"/>
                        <path data-name="路径 23781" d="m773.289 555.6-3.264-1.775a2.179 2.179 0 0 1 .177-.176l3.262 1.774a1.7 1.7 0 0 0-.174.178" transform="translate(-769.422 -553.17)" style="fill:#866c31"/>
                        <path data-name="路径 23782" d="m773.68 555.224-3.262-1.774a1.9 1.9 0 0 1 .2-.158l3.26 1.776a2.069 2.069 0 0 0-.2.156" transform="translate(-769.638 -552.976)" style="fill:#866c31"/>
                        <path data-name="路径 23783" d="m774.117 554.891-3.261-1.776.08-.05a1.372 1.372 0 0 1 .174-.095l3.26 1.777a1.443 1.443 0 0 0-.17.09l-.083.054" transform="translate(-769.879 -552.799)" style="fill:#866c31"/>
                        <path data-name="路径 23784" d="m774.682 554.537-3.26-1.777a1.772 1.772 0 0 1 .523-.154 1.538 1.538 0 0 1 .609.03l3.262 1.776a1.526 1.526 0 0 0-.611-.032 1.814 1.814 0 0 0-.523.158" transform="translate(-770.19 -552.589)" style="fill:#866c31"/>
                        <path data-name="路径 23785" d="m777.2 554.469-3.262-1.776a1.277 1.277 0 0 1 .224.079.243.243 0 0 1 .053.026l3.262 1.773-.054-.026a1.359 1.359 0 0 0-.223-.076" transform="translate(-771.575 -552.646)" style="fill:#866c31"/>
                        <path data-name="路径 23786" d="m777.816 554.7-3.262-1.773.054.025 3.263 1.776a.354.354 0 0 0-.055-.029" transform="translate(-771.914 -552.775)" style="fill:#866c31"/>
                    </g>
                </g>
                <path data-name="路径 23788" d="m769.849 552.894-3.26-1.776.015-8.783 3.263 1.773z" transform="translate(-725.177 -506.942)" style="fill:#866c31"/>
                <path data-name="路径 23789" d="m769.885 544-3.263-1.773.6-.086 3.263 1.777z" transform="translate(-725.195 -506.837)" style="fill:#866c31"/>
                <path data-name="路径 23790" d="m774.459 546.1-.018 8.781-.6.086.017-8.786z" transform="translate(-729.166 -509.012)" style="fill:#cca855"/>
                <path data-name="路径 23791" d="m767.332 561.3-3.263-1.777.688-.1 3.262 1.776z" transform="translate(-723.79 -516.346)" style="fill:#866c31"/>
                <g data-name="组 24912">
                    <path data-name="路径 23792" d="M763.87 562.044q-1.631-.886-3.262-1.776a.926.926 0 0 0 .605.1 1.178 1.178 0 0 0 .553-.231 1.377 1.377 0 0 0 .4-.5l3.263 1.777a1.367 1.367 0 0 1-.4.493 1.146 1.146 0 0 1-.551.234.959.959 0 0 1-.607-.1" transform="translate(-721.885 -516.464)" style="fill:#866c31"/>
                </g>
                <g data-name="组 24914">
                    <g data-name="组 24913" style="clip-path:url(#2xx92nwsaq)" transform="translate(38.723 43.173)">
                        <path data-name="路径 23793" d="m763.87 562.815-3.262-1.776a.361.361 0 0 1 .032.018l3.263 1.776-.034-.018" transform="translate(-760.608 -560.409)" style="fill:#866c31"/>
                        <path data-name="路径 23794" d="m763.943 562.855-3.263-1.776a.661.661 0 0 0 .169.062l3.263 1.777a1.241 1.241 0 0 1-.168-.063" transform="translate(-760.647 -560.431)" style="fill:#866c31"/>
                        <path data-name="路径 23795" d="m764.317 562.9-3.263-1.777a1.014 1.014 0 0 0 .4.017 1.067 1.067 0 0 0 .331-.1l3.263 1.776a1.193 1.193 0 0 1-.331.1 1.068 1.068 0 0 1-.405-.018" transform="translate(-760.853 -560.409)" style="fill:#866c31"/>
                        <path data-name="路径 23796" d="m765.954 562.7-3.263-1.776a1.316 1.316 0 0 0 .169-.1l3.262 1.772a1.032 1.032 0 0 1-.169.1" transform="translate(-761.754 -560.291)" style="fill:#866c31"/>
                        <path data-name="路径 23797" d="m766.331 562.468-3.262-1.772a.537.537 0 0 1 .052-.038l.081-.068 3.261 1.773a.7.7 0 0 1-.08.068.621.621 0 0 1-.052.037" transform="translate(-761.962 -560.161)" style="fill:#866c31"/>
                        <path data-name="路径 23798" d="m766.624 562.23-3.261-1.774a1.422 1.422 0 0 0 .106-.108l3.264 1.775a1.155 1.155 0 0 1-.109.107" transform="translate(-762.124 -560.028)" style="fill:#866c31"/>
                        <path data-name="路径 23799" d="m766.862 561.981-3.264-1.775c.034-.037.064-.078.095-.116l3.261 1.773a1.342 1.342 0 0 1-.092.119" transform="translate(-762.253 -559.886)" style="fill:#866c31"/>
                        <path data-name="路径 23800" d="m767.07 561.683-3.261-1.773c.031-.046.06-.1.088-.146l3.262 1.776a1.4 1.4 0 0 1-.089.143" transform="translate(-762.37 -559.707)" style="fill:#866c31"/>
                        <path data-name="路径 23801" d="m767.267 561.47-3.262-1.776c.008-.02.02-.037.029-.057l3.263 1.777-.03.056" transform="translate(-762.477 -559.637)" style="fill:#866c31"/>
                    </g>
                </g>
                <g data-name="组 24915">
                    <path data-name="路径 23803" d="m763.249 555.732 3.263 1.776a.943.943 0 0 1 .1.066 1.13 1.13 0 0 1 .394.655l-3.26-1.776a1.139 1.139 0 0 0-.4-.651.816.816 0 0 0-.1-.069" transform="translate(-723.339 -514.315)" style="fill:#866c31"/>
                </g>
                <g data-name="组 24917">
                    <g data-name="组 24916" style="clip-path:url(#5sju4nldnr)" transform="translate(39.91 41.417)">
                        <path data-name="路径 23804" d="m767.01 558.228-3.26-1.776a1.139 1.139 0 0 0-.4-.651.768.768 0 0 0-.1-.069l3.263 1.776a.787.787 0 0 1 .1.065 1.128 1.128 0 0 1 .395.655" transform="translate(-763.249 -555.732)" style="fill:#866c31"/>
                    </g>
                </g>
                <path data-name="路径 23806" d="m762.784 559.414-3.262-1.775 2.177-.306 3.261 1.776z" transform="translate(-721.287 -515.196)" style="fill:#866c31"/>
                <g data-name="组 24918">
                    <path data-name="路径 23807" d="m762.147 559.6-3.261-1.776a1.444 1.444 0 0 1-.337-.251 1.718 1.718 0 0 1-.37-.579 1.848 1.848 0 0 1-.133-.711 2.329 2.329 0 0 1 .121-.739 2.4 2.4 0 0 1 .363-.666 2.126 2.126 0 0 1 .573-.532 1.834 1.834 0 0 1 .7-.248 1.514 1.514 0 0 1 .83.108c.038.017.076.038.113.058l3.262 1.771a1.742 1.742 0 0 0-.114-.054 1.484 1.484 0 0 0-.83-.109 1.789 1.789 0 0 0-.7.248 2.147 2.147 0 0 0-.574.531 2.4 2.4 0 0 0-.362.667 2.275 2.275 0 0 0-.122.738 1.9 1.9 0 0 0 .134.713 1.665 1.665 0 0 0 .369.575 1.548 1.548 0 0 0 .336.254" transform="translate(-720.475 -513.408)" style="fill:#866c31"/>
                </g>
                <g data-name="组 24920">
                    <g data-name="组 24919" style="clip-path:url(#8nko8jevjs)" transform="translate(37.571 40.677)">
                        <path data-name="路径 23808" d="m762.147 561.351-3.261-1.776a1.443 1.443 0 0 1-.337-.251 1.718 1.718 0 0 1-.37-.579 1.847 1.847 0 0 1-.133-.711 2.329 2.329 0 0 1 .121-.739c0-.009.009-.021.011-.031l3.264 1.776a.1.1 0 0 0-.012.031 2.276 2.276 0 0 0-.122.738 1.9 1.9 0 0 0 .134.713 1.666 1.666 0 0 0 .369.575 1.547 1.547 0 0 0 .336.254" transform="translate(-758.046 -555.834)" style="fill:#866c31"/>
                        <path data-name="路径 23809" d="m761.6 558.668-3.263-1.776a2.283 2.283 0 0 1 .138-.3l3.26 1.777a2.225 2.225 0 0 0-.134.3" transform="translate(-758.208 -555.462)" style="fill:#866c31"/>
                        <path data-name="路径 23810" d="m761.907 558.066-3.26-1.777a2.693 2.693 0 0 1 .151-.245l3.263 1.773a2.517 2.517 0 0 0-.154.249" transform="translate(-758.377 -555.163)" style="fill:#866c31"/>
                        <path data-name="路径 23811" d="m762.246 557.54-3.263-1.773a2.905 2.905 0 0 1 .176-.227l3.264 1.778a1.756 1.756 0 0 0-.116.139l-.062.084" transform="translate(-758.562 -554.886)" style="fill:#866c31"/>
                        <path data-name="路径 23812" d="m762.639 557.1-3.263-1.778c.058-.062.116-.121.177-.176l3.26 1.774a2.3 2.3 0 0 0-.174.18" transform="translate(-758.778 -554.67)" style="fill:#866c31"/>
                        <path data-name="路径 23813" d="m763.029 556.727-3.26-1.774a1.737 1.737 0 0 1 .2-.16l3.261 1.776a2.464 2.464 0 0 0-.2.157" transform="translate(-758.994 -554.475)" style="fill:#866c31"/>
                        <path data-name="路径 23814" d="m763.474 556.387-3.261-1.776c.026-.018.054-.037.084-.055.058-.033.114-.065.172-.094l3.263 1.776c-.06.029-.117.059-.174.093a.876.876 0 0 0-.084.056" transform="translate(-759.238 -554.292)" style="fill:#866c31"/>
                        <path data-name="路径 23815" d="m764.045 556.03-3.263-1.776a1.762 1.762 0 0 1 .525-.154 1.515 1.515 0 0 1 .606.032l3.261 1.771a1.562 1.562 0 0 0-.606-.028 1.845 1.845 0 0 0-.522.155" transform="translate(-759.552 -554.084)" style="fill:#866c31"/>
                        <path data-name="路径 23816" d="m766.556 555.962-3.261-1.771a1.58 1.58 0 0 1 .225.076c.02.011.04.02.06.028l3.261 1.776c-.018-.011-.04-.019-.06-.028a1.358 1.358 0 0 0-.224-.081" transform="translate(-760.935 -554.143)" style="fill:#866c31"/>
                        <path data-name="路径 23817" d="m767.189 556.2-3.261-1.776a.521.521 0 0 1 .053.03l3.262 1.771-.053-.025" transform="translate(-761.283 -554.271)" style="fill:#866c31"/>
                    </g>
                </g>
                <g data-name="组 24921">
                    <path data-name="路径 23819" d="M768.685 559.9v.106l-2.867.4a1.068 1.068 0 0 0 .384.685.946.946 0 0 0 .733.18 1.154 1.154 0 0 0 .552-.234 1.365 1.365 0 0 0 .4-.493l.688-.1a2.525 2.525 0 0 1-.66 1.025 1.808 1.808 0 0 1-.981.457 1.549 1.549 0 0 1-.688-.043 1.39 1.39 0 0 1-.566-.352 1.669 1.669 0 0 1-.369-.575 1.9 1.9 0 0 1-.134-.713 2.276 2.276 0 0 1 .122-.738 2.389 2.389 0 0 1 .362-.667 2.182 2.182 0 0 1 .574-.531 1.806 1.806 0 0 1 .7-.248 1.489 1.489 0 0 1 .831.109 1.456 1.456 0 0 1 .637.539 1.668 1.668 0 0 1 .217.517 2.693 2.693 0 0 1 .071.671m-2.846-.085 2.175-.3a1.127 1.127 0 0 0-.395-.655.893.893 0 0 0-.674-.157 1.233 1.233 0 0 0-.7.358 1.551 1.551 0 0 0-.408.759" transform="translate(-724.399 -515.59)" style="fill:#cca855"/>
                </g>
                <path data-name="路径 23820" d="m758.462 556.965-3.261-1.776.714-.1 3.263 1.778z" transform="translate(-718.91 -513.96)" style="fill:#866c31"/>
                <path data-name="路径 23821" d="m757.123 563.152-3.261-1.777-1.37-1.667 3.264 1.773z" transform="translate(-717.419 -516.502)" style="fill:#866c31"/>
                <path data-name="路径 23822" d="m755.759 558.959-3.262-1.776 1.216-1.87 3.261 1.776z" transform="translate(-717.422 -514.084)" style="fill:#866c31"/>
                <path data-name="路径 23823" d="m754.412 552.138-3.264-1.774.021-11.172 3.262 1.776z" transform="translate(-716.679 -505.213)" style="fill:#866c31"/>
                <path data-name="路径 23824" d="m754.457 540.867-3.262-1.776.6-.083 3.262 1.773z" transform="translate(-716.705 -505.112)" style="fill:#866c31"/>
                <path data-name="路径 23825" d="m759.028 542.951-.017 9.205 1.215-1.87.715-.1-1.254 1.916 1.48 1.715-.79.113-1.367-1.671v1.863l-.6.083.019-11.17z" transform="translate(-720.673 -507.282)" style="fill:#cca855"/>
                <g data-name="组 24922">
                    <path data-name="路径 23826" d="m751.892 558.213-3.263-1.776a1.25 1.25 0 0 1 .35-.409.986.986 0 0 1 .454-.188l3.262 1.773a1 1 0 0 0-.455.189 1.283 1.283 0 0 0-.349.411" transform="translate(-715.293 -514.374)" style="fill:#866c31"/>
                </g>
                <g data-name="组 24924">
                    <g data-name="组 24923" style="clip-path:url(#6j3k3h60ft)" transform="translate(33.335 41.466)">
                        <path data-name="路径 23827" d="m751.892 558.782-3.263-1.776c.027-.046.054-.089.083-.132l3.262 1.777a1.481 1.481 0 0 0-.083.131" transform="translate(-748.629 -556.409)" style="fill:#866c31"/>
                        <path data-name="路径 23828" d="m752.076 558.5-3.262-1.777a1.166 1.166 0 0 1 .1-.121l3.262 1.775a1.166 1.166 0 0 0-.1.123" transform="translate(-748.73 -556.261)" style="fill:#866c31"/>
                        <path data-name="路径 23829" d="m752.291 558.264-3.262-1.775c.031-.035.063-.066.093-.094l3.263 1.776a.972.972 0 0 0-.094.094" transform="translate(-748.849 -556.145)" style="fill:#866c31"/>
                        <path data-name="路径 23830" d="m752.5 558.064-3.262-1.776a.734.734 0 0 1 .076-.061.226.226 0 0 1 .032-.025l3.259 1.776a.528.528 0 0 0-.031.024.7.7 0 0 0-.076.063" transform="translate(-748.963 -556.039)" style="fill:#866c31"/>
                        <path data-name="路径 23831" d="m752.738 557.884-3.259-1.776a1.069 1.069 0 0 1 .133-.076l3.263 1.776a1.289 1.289 0 0 0-.136.076" transform="translate(-749.096 -555.946)" style="fill:#866c31"/>
                        <path data-name="路径 23832" d="m753.038 557.7-3.263-1.776a.98.98 0 0 1 .289-.086l3.262 1.773a1.056 1.056 0 0 0-.288.09" transform="translate(-749.259 -555.84)" style="fill:#866c31"/>
                    </g>
                </g>
                <path data-name="路径 23834" d="m750.6 555.334-3.261-1.776.017-9 3.262 1.777z" transform="translate(-714.583 -508.165)" style="fill:#866c31"/>
                <path data-name="路径 23835" d="m750.637 546.237-3.262-1.777.574-.079 3.263 1.773z" transform="translate(-714.603 -508.068)" style="fill:#866c31"/>
                <g data-name="组 24925">
                    <path data-name="路径 23836" d="m755.182 548.324-.011 5.753a1.294 1.294 0 0 1 .349-.411 1.006 1.006 0 0 1 .455-.19v.692a.925.925 0 0 0-.588.342 1.321 1.321 0 0 0-.18.762v2.048l-.614.086.018-9z" transform="translate(-718.573 -510.238)" style="fill:#cca855"/>
                </g>
                <path data-name="路径 23837" d="m748.084 564-3.262-1.777.687-.094 3.262 1.773z" transform="translate(-713.198 -517.837)" style="fill:#866c31"/>
                <g data-name="组 24926">
                    <path data-name="路径 23838" d="m744.633 564.751-3.262-1.775a.966.966 0 0 0 .6.1 1.189 1.189 0 0 0 .554-.235 1.385 1.385 0 0 0 .4-.5l3.262 1.777a1.371 1.371 0 0 1-.4.493 1.168 1.168 0 0 1-.554.233.951.951 0 0 1-.6-.094" transform="translate(-711.299 -517.952)" style="fill:#866c31"/>
                </g>
                <g data-name="组 24928">
                    <g data-name="组 24927" style="clip-path:url(#o34818fycu)" transform="translate(30.072 44.39)">
                        <path data-name="路径 23839" d="m744.633 565.527-3.262-1.775.031.017 3.263 1.773c-.01-.006-.022-.008-.031-.014" transform="translate(-741.371 -563.118)" style="fill:#866c31"/>
                        <path data-name="路径 23840" d="m744.7 565.563-3.262-1.773a.851.851 0 0 0 .165.06l3.263 1.776a.692.692 0 0 1-.165-.063" transform="translate(-741.409 -563.139)" style="fill:#866c31"/>
                        <path data-name="路径 23841" d="m745.07 565.6-3.263-1.776a1.01 1.01 0 0 0 .4.02 1.245 1.245 0 0 0 .334-.1l3.262 1.773a1.085 1.085 0 0 1-.332.1 1.056 1.056 0 0 1-.4-.017" transform="translate(-741.611 -563.114)" style="fill:#866c31"/>
                        <path data-name="路径 23842" d="m746.709 565.392-3.262-1.773a1.261 1.261 0 0 0 .175-.1l3.262 1.776a.921.921 0 0 1-.175.1" transform="translate(-742.513 -562.988)" style="fill:#866c31"/>
                        <path data-name="路径 23843" d="m747.1 565.175-3.262-1.776a.316.316 0 0 0 .044-.032c.025-.019.052-.043.077-.064l3.261 1.776a.789.789 0 0 1-.075.062l-.045.035" transform="translate(-742.727 -562.87)" style="fill:#866c31"/>
                        <path data-name="路径 23844" d="m747.366 564.946-3.26-1.777a1.174 1.174 0 0 0 .107-.108l3.262 1.775c-.034.037-.07.075-.109.11" transform="translate(-742.876 -562.738)" style="fill:#866c31"/>
                        <path data-name="路径 23845" d="m747.608 564.689-3.262-1.775c.032-.038.064-.078.094-.12l3.261 1.776a1.348 1.348 0 0 1-.094.119" transform="translate(-743.008 -562.591)" style="fill:#866c31"/>
                        <path data-name="路径 23846" d="m747.817 564.391-3.261-1.776c.031-.046.061-.094.09-.146l3.262 1.775a1.073 1.073 0 0 1-.091.147" transform="translate(-743.124 -562.412)" style="fill:#866c31"/>
                        <path data-name="路径 23847" d="m748.019 564.174-3.263-1.775.03-.057 3.262 1.776c-.009.02-.021.037-.029.056" transform="translate(-743.234 -562.342)" style="fill:#866c31"/>
                    </g>
                </g>
                <g data-name="组 24929">
                    <path data-name="路径 23849" d="m744 558.437 3.262 1.776a.657.657 0 0 1 .106.066 1.127 1.127 0 0 1 .395.653l-3.262-1.777a1.13 1.13 0 0 0-.395-.651.817.817 0 0 0-.106-.067" transform="translate(-712.744 -515.803)" style="fill:#866c31"/>
                </g>
                <g data-name="组 24931">
                    <g data-name="组 24930" style="clip-path:url(#se075k9k7v)" transform="translate(31.253 42.634)">
                        <path data-name="路径 23850" d="m747.759 560.932-3.262-1.777a1.13 1.13 0 0 0-.395-.651.817.817 0 0 0-.106-.067l3.262 1.776a.657.657 0 0 1 .106.066 1.124 1.124 0 0 1 .395.653" transform="translate(-743.997 -558.437)" style="fill:#866c31"/>
                    </g>
                </g>
                <path data-name="路径 23852" d="m743.536 562.117-3.262-1.776 2.175-.306 3.261 1.776z" transform="translate(-710.695 -516.683)" style="fill:#866c31"/>
                <g data-name="组 24932">
                    <path data-name="路径 23853" d="m742.9 562.3-3.262-1.772a1.392 1.392 0 0 1-.335-.255 1.673 1.673 0 0 1-.372-.576 1.859 1.859 0 0 1-.13-.711 2.2 2.2 0 0 1 .123-.741 2.4 2.4 0 0 1 .358-.665 2.136 2.136 0 0 1 .574-.53 1.789 1.789 0 0 1 .7-.249 1.551 1.551 0 0 1 .835.108c.036.017.072.035.107.055l3.264 1.772c-.035-.017-.072-.036-.107-.049a1.5 1.5 0 0 0-.836-.111 1.765 1.765 0 0 0-.7.249 2.125 2.125 0 0 0-.573.532 2.278 2.278 0 0 0-.361.665 2.23 2.23 0 0 0-.125.74 1.913 1.913 0 0 0 .135.711 1.635 1.635 0 0 0 .37.576 1.394 1.394 0 0 0 .334.252" transform="translate(-709.883 -514.897)" style="fill:#866c31"/>
                </g>
                <g data-name="组 24934">
                    <g data-name="组 24933" style="clip-path:url(#uf0krfkrww)" transform="translate(28.915 41.893)">
                        <path data-name="路径 23854" d="m742.9 564.031-3.262-1.772a1.392 1.392 0 0 1-.338-.259 1.673 1.673 0 0 1-.372-.576 1.859 1.859 0 0 1-.13-.711 2.2 2.2 0 0 1 .123-.741l.017-.048 3.262 1.776c0 .014-.01.032-.018.049a2.23 2.23 0 0 0-.125.74 1.913 1.913 0 0 0 .135.711 1.635 1.635 0 0 0 .37.576 1.394 1.394 0 0 0 .334.252" transform="translate(-738.799 -558.517)" style="fill:#866c31"/>
                        <path data-name="路径 23855" d="m742.373 561.353-3.262-1.777a2.135 2.135 0 0 1 .13-.288l3.263 1.773a2.769 2.769 0 0 0-.131.292" transform="translate(-738.971 -558.165)" style="fill:#866c31"/>
                        <path data-name="路径 23856" d="m742.664 560.764-3.263-1.773a2.58 2.58 0 0 1 .15-.243l3.262 1.773a2.845 2.845 0 0 0-.15.243" transform="translate(-739.13 -557.867)" style="fill:#866c31"/>
                        <path data-name="路径 23857" d="m743 560.245-3.262-1.773.061-.086c.037-.048.076-.094.115-.14l3.263 1.776a1.5 1.5 0 0 0-.114.141.941.941 0 0 0-.062.083" transform="translate(-739.314 -557.591)" style="fill:#866c31"/>
                        <path data-name="路径 23858" d="m743.389 559.806-3.262-1.776a2.267 2.267 0 0 1 .177-.177l3.263 1.772a1.968 1.968 0 0 0-.178.18" transform="translate(-739.53 -557.375)" style="fill:#866c31"/>
                        <path data-name="路径 23859" d="m743.783 559.43-3.263-1.772a1.939 1.939 0 0 1 .2-.16l3.261 1.775a2.141 2.141 0 0 0-.2.157" transform="translate(-739.746 -557.18)" style="fill:#866c31"/>
                        <path data-name="路径 23860" d="m744.226 559.091-3.262-1.775c.026-.017.054-.037.082-.054.058-.034.115-.066.175-.095l3.261 1.776a2.47 2.47 0 0 0-.174.094c-.027.018-.056.034-.083.054" transform="translate(-739.99 -556.997)" style="fill:#866c31"/>
                        <path data-name="路径 23861" d="m744.8 558.735-3.261-1.776a1.874 1.874 0 0 1 .521-.154 1.564 1.564 0 0 1 .612.031l3.262 1.775a1.545 1.545 0 0 0-.611-.031 1.872 1.872 0 0 0-.522.155" transform="translate(-740.305 -556.789)" style="fill:#866c31"/>
                        <path data-name="路径 23862" d="m747.315 558.669-3.261-1.775a1.594 1.594 0 0 1 .223.077l.053.026 3.262 1.775a.2.2 0 0 0-.052-.024 1.388 1.388 0 0 0-.225-.08" transform="translate(-741.691 -556.847)" style="fill:#866c31"/>
                        <path data-name="路径 23863" d="m747.93 558.9-3.262-1.775a.364.364 0 0 1 .053.029l3.264 1.772-.056-.026" transform="translate(-742.029 -556.973)" style="fill:#866c31"/>
                    </g>
                </g>
                <g data-name="组 24935">
                    <path data-name="路径 23865" d="M749.559 562.59v.1l-2.865.4a1.045 1.045 0 0 0 .382.685.922.922 0 0 0 .732.18 1.165 1.165 0 0 0 .553-.233 1.361 1.361 0 0 0 .4-.494l.688-.1a2.506 2.506 0 0 1-.658 1.024 1.812 1.812 0 0 1-.981.461 1.549 1.549 0 0 1-.687-.047 1.394 1.394 0 0 1-.566-.351 1.634 1.634 0 0 1-.37-.576 1.92 1.92 0 0 1-.135-.711 2.246 2.246 0 0 1 .124-.74 2.29 2.29 0 0 1 .361-.664 2.131 2.131 0 0 1 .573-.532 1.765 1.765 0 0 1 .7-.249 1.5 1.5 0 0 1 .836.11 1.452 1.452 0 0 1 .632.538 1.616 1.616 0 0 1 .218.517 2.789 2.789 0 0 1 .071.672m-2.845-.088 2.174-.306a1.124 1.124 0 0 0-.395-.653.888.888 0 0 0-.675-.158 1.23 1.23 0 0 0-.7.357 1.544 1.544 0 0 0-.407.759" transform="translate(-713.874 -517.068)" style="fill:#cca855"/>
                    <path data-name="路径 23866" d="M736.018 566.3q-1.631-.891-3.263-1.776a.889.889 0 0 0 .568.1 1.267 1.267 0 0 0 .834-.491l3.263 1.776a1.268 1.268 0 0 1-.832.488.9.9 0 0 1-.568-.094" transform="translate(-706.558 -518.936)" style="fill:#866c31"/>
                </g>
                <g data-name="组 24937">
                    <g data-name="组 24936" style="clip-path:url(#w7hzgq4dwx)" transform="translate(26.197 45.194)">
                        <path data-name="路径 23867" d="m736.018 566.784-3.263-1.776.034.017 3.262 1.776-.033-.018" transform="translate(-732.755 -564.614)" style="fill:#866c31"/>
                        <path data-name="路径 23868" d="m736.093 566.822-3.262-1.776a.958.958 0 0 0 .165.063l3.263 1.773a.893.893 0 0 1-.166-.059" transform="translate(-732.797 -564.635)" style="fill:#866c31"/>
                        <path data-name="路径 23869" d="m736.462 566.851-3.263-1.773a.964.964 0 0 0 .368.016 1.178 1.178 0 0 0 .358-.1l3.263 1.775a1.235 1.235 0 0 1-.357.1.878.878 0 0 1-.369-.017" transform="translate(-732.999 -564.603)" style="fill:#866c31"/>
                        <path data-name="路径 23870" d="m738.076 566.642-3.263-1.775a1.445 1.445 0 0 0 .175-.1l3.263 1.774a1.464 1.464 0 0 1-.174.1" transform="translate(-733.888 -564.481)" style="fill:#866c31"/>
                        <path data-name="路径 23871" d="m738.465 566.407-3.262-1.773a1.565 1.565 0 0 0 .132-.109l3.265 1.775a1.87 1.87 0 0 1-.134.105" transform="translate(-734.102 -564.348)" style="fill:#866c31"/>
                        <path data-name="路径 23872" d="m738.761 566.153-3.264-1.777a1.307 1.307 0 0 0 .123-.121l3.264 1.771a1.282 1.282 0 0 1-.123.127" transform="translate(-734.264 -564.199)" style="fill:#866c31"/>
                        <path data-name="路径 23873" d="m739.034 565.958-3.264-1.771a.563.563 0 0 0 .045-.056l3.263 1.776-.044.051" transform="translate(-734.414 -564.131)" style="fill:#866c31"/>
                    </g>
                </g>
                <g data-name="组 24938">
                    <path data-name="路径 23875" d="M735.41 559.728q1.63.89 3.263 1.775a1.018 1.018 0 0 1 .209.152 1.094 1.094 0 0 1 .339.845 1.522 1.522 0 0 1-.34.985l-3.263-1.776a1.519 1.519 0 0 0 .342-.981 1.1 1.1 0 0 0-.342-.848.983.983 0 0 0-.207-.151" transform="translate(-708.019 -516.514)" style="fill:#866c31"/>
                </g>
                <g data-name="组 24940">
                    <g data-name="组 24939" style="clip-path:url(#1m6r3hgahy)" transform="translate(27.391 43.214)">
                        <path data-name="路径 23876" d="m739.134 565.8-3.262-1.776c.023-.028.044-.056.065-.085l3.261 1.776-.064.085" transform="translate(-735.664 -562.047)" style="fill:#866c31"/>
                        <path data-name="路径 23877" d="m739.277 565.529-3.261-1.776c.035-.052.066-.1.1-.155l3.264 1.774a1.265 1.265 0 0 1-.1.157" transform="translate(-735.743 -561.858)" style="fill:#866c31"/>
                        <path data-name="路径 23878" d="m739.491 565.139-3.264-1.774a1.645 1.645 0 0 0 .087-.19l3.262 1.772a1.363 1.363 0 0 1-.085.192" transform="translate(-735.86 -561.625)" style="fill:#866c31"/>
                        <path data-name="路径 23879" d="m739.127 563.05-3.262-1.772a1.585 1.585 0 0 0 .095-.551 1.1 1.1 0 0 0-.342-.848.966.966 0 0 0-.207-.151l3.263 1.775a1.018 1.018 0 0 1 .209.152 1.094 1.094 0 0 1 .339.845 1.586 1.586 0 0 1-.094.551" transform="translate(-735.41 -559.728)" style="fill:#866c31"/>
                    </g>
                </g>
                <g data-name="组 24941">
                    <path data-name="路径 23881" d="M735.111 567.8q-1.631-.887-3.262-1.777a1.306 1.306 0 0 1-.313-.234l3.261 1.777a1.549 1.549 0 0 0 .314.234" transform="translate(-705.887 -519.848)" style="fill:#866c31"/>
                </g>
                <g data-name="组 24943">
                    <g data-name="组 24942" style="clip-path:url(#qazux1ifqz)" transform="translate(25.649 45.94)">
                        <path data-name="路径 23882" d="m735.111 567.8-3.262-1.777a1.306 1.306 0 0 1-.313-.234l3.261 1.777a1.549 1.549 0 0 0 .314.234" transform="translate(-731.536 -565.788)" style="fill:#866c31"/>
                    </g>
                </g>
                <g data-name="组 24944">
                    <path data-name="路径 23884" d="m733.641 558.176 3.263 1.777a1.239 1.239 0 0 0-.228-.1 1.55 1.55 0 0 0-.692-.04 1.653 1.653 0 0 0-.641.223 2.064 2.064 0 0 0-.545.478l-3.261-1.772a2.075 2.075 0 0 1 .542-.483 1.757 1.757 0 0 1 .643-.223 1.549 1.549 0 0 1 .692.044 1.2 1.2 0 0 1 .228.093" transform="translate(-705.887 -515.574)" style="fill:#866c31"/>
                </g>
                <g data-name="组 24946">
                    <g data-name="组 24945" style="clip-path:url(#d8p6si08lA)" transform="translate(25.649 42.446)">
                        <path data-name="路径 23885" d="m734.8 561.305-3.261-1.772a.739.739 0 0 1 .067-.08l3.262 1.774c-.022.025-.045.054-.068.079" transform="translate(-731.536 -558.809)" style="fill:#866c31"/>
                        <path data-name="路径 23886" d="m734.946 561.006-3.262-1.773a1.883 1.883 0 0 1 .177-.18l3.262 1.772c-.059.058-.119.115-.177.181" transform="translate(-731.617 -558.588)" style="fill:#866c31"/>
                        <path data-name="路径 23887" d="m735.339 560.637-3.262-1.772a1.574 1.574 0 0 1 .193-.154l3.262 1.776a2.3 2.3 0 0 0-.193.15" transform="translate(-731.834 -558.4)" style="fill:#866c31"/>
                        <path data-name="路径 23888" d="m735.768 560.311-3.262-1.776.106-.069c.035-.023.094-.051.144-.075l3.262 1.773a1.437 1.437 0 0 0-.142.078.845.845 0 0 0-.108.069" transform="translate(-732.07 -558.224)" style="fill:#866c31"/>
                        <path data-name="路径 23889" d="m736.323 559.961-3.262-1.773a1.762 1.762 0 0 1 .5-.148 1.629 1.629 0 0 1 .632.026l3.263 1.774a1.571 1.571 0 0 0-.632-.023 1.794 1.794 0 0 0-.5.145" transform="translate(-732.375 -558.021)" style="fill:#866c31"/>
                        <path data-name="路径 23890" d="m738.839 559.895-3.262-1.774a.18.18 0 0 1 .06.018 1.05 1.05 0 0 1 .182.07l3.259 1.772a1.171 1.171 0 0 0-.179-.07.439.439 0 0 0-.059-.017" transform="translate(-733.76 -558.076)" style="fill:#866c31"/>
                        <path data-name="路径 23891" d="m739.373 560.089-3.259-1.773a.353.353 0 0 0 .046.023l3.263 1.777-.049-.027" transform="translate(-734.055 -558.183)" style="fill:#866c31"/>
                    </g>
                </g>
                <path data-name="路径 23893" d="m733.476 541.322-3.262-1.777.609-.085 3.263 1.776z" transform="translate(-705.159 -505.361)" style="fill:#866c31"/>
                <path data-name="路径 23894" d="m733.424 553.717-3.261-1.777.023-12.292 3.262 1.777z" transform="translate(-705.131 -505.464)" style="fill:#866c31"/>
                <path data-name="路径 23895" d="m737.439 543.5.61-.085v12.332l-.634.045z" transform="translate(-709.122 -507.534)" style="fill:#cca855"/>
                <path data-name="路径 23896" d="M738.382 562.606a3.575 3.575 0 0 0-.183 1.055 1.13 1.13 0 0 0 .244.736.824.824 0 0 0 .43.321 1.081 1.081 0 0 0 1.1-.208 1.412 1.412 0 0 0 .491-.849 2.1 2.1 0 0 0-.135-1.01 1.089 1.089 0 0 0-.561-.573.98.98 0 0 0-.771.018 1.173 1.173 0 0 0-.5.4c-.116.161-.9.851-.9.851a1.453 1.453 0 0 1 .056-.515 2.623 2.623 0 0 1 .321-.726 1.746 1.746 0 0 1 .847-.658 1.572 1.572 0 0 1 .689-.141 1.413 1.413 0 0 1 .652.2 1.7 1.7 0 0 1 .518.469 1.943 1.943 0 0 1 .322.667 2.317 2.317 0 0 1 .076.761 2.435 2.435 0 0 1-.179.754 2.212 2.212 0 0 1-.424.677 1.837 1.837 0 0 1-.62.43 1.52 1.52 0 0 1-.849.114 1.485 1.485 0 0 1-.772-.362 1.72 1.72 0 0 1-.353-.452 2.329 2.329 0 0 1-.284-1.214" transform="translate(-709.211 -517.382)" style="fill:#cca855"/>
            </g>
            <g data-name="组 24953">
                <g data-name="组 24952">
                    <g data-name="组 24949">
                        <path data-name="路径 23897" d="M1050.833 582.014a2.464 2.464 0 1 1-2.464-2.418 2.444 2.444 0 0 1 2.464 2.418z" transform="translate(-878.885 -527.447)" style="fill:#cca855"/>
                        <g data-name="组 24948">
                            <path data-name="路径 23898" d="M1047.805 570.766h.8a3.737 3.737 0 0 1 .547.032 1.107 1.107 0 0 1 .342.1.983.983 0 0 1 .379.345.888.888 0 0 1 .133.479.946.946 0 0 1-.12.467.9.9 0 0 1-.333.341 1.094 1.094 0 0 1-.356.13 2.873 2.873 0 0 1-.528.04h-.49v1.4h-.37zm.37.328v1.276h.542a1.157 1.157 0 0 0 .667-.154.546.546 0 0 0 .216-.476.563.563 0 0 0-.217-.491 1.221 1.221 0 0 0-.7-.155z" transform="translate(-879.93 -522.588)" style="fill:#cca855"/>
                            <path data-name="路径 23899" d="M1054.43 575.059h-.371v-2.526h.344v.29a.8.8 0 0 1 .661-.327v.349a.741.741 0 0 0-.49.183.713.713 0 0 0-.148.5z" transform="translate(-883.372 -523.54)" style="fill:#cca855"/>
                            <path data-name="路径 23900" d="M1057.247 573.746a1.247 1.247 0 0 1 .428-.949 1.443 1.443 0 0 1 1.012-.394 1.521 1.521 0 0 1 1.049.388 1.2 1.2 0 0 1 .434.924 1.274 1.274 0 0 1-.425.963 1.451 1.451 0 0 1-1.03.4 1.483 1.483 0 0 1-1.042-.391 1.229 1.229 0 0 1-.426-.941zm.381-.005a.962.962 0 0 0 .312.729 1.084 1.084 0 0 0 .775.294 1.066 1.066 0 0 0 .765-.294.972.972 0 0 0 .309-.734.952.952 0 0 0-.313-.733 1.127 1.127 0 0 0-.794-.287 1.038 1.038 0 0 0-.742.3.967.967 0 0 0-.312.724z" transform="translate(-885.126 -523.488)" style="fill:#cca855"/>
                            <path data-name="路径 23901" d="M1065.257 572.514h.36v.416a1.055 1.055 0 0 1 .442-.342 1.489 1.489 0 0 1 .612-.128 1.525 1.525 0 0 1 1.062.38 1.272 1.272 0 0 1 .005 1.886 1.48 1.48 0 0 1-1.039.381 1.555 1.555 0 0 1-.622-.12 1.181 1.181 0 0 1-.46-.347v1.213h-.36zm.36 1.249a.984.984 0 0 0 .319.737 1.049 1.049 0 0 0 .751.306 1.1 1.1 0 0 0 .765-.29.926.926 0 0 0 .319-.712.975.975 0 0 0-.321-.742 1.1 1.1 0 0 0-.776-.3 1.046 1.046 0 0 0-.739.3.933.933 0 0 0-.318.701z" transform="translate(-889.534 -523.521)" style="fill:#cca855"/>
                            <path data-name="路径 23902" d="M1075.845 573.861h-2.557a.93.93 0 0 0 .334.663 1.228 1.228 0 0 0 1.326.107 1 1 0 0 0 .394-.405h.413a1.478 1.478 0 0 1-.55.64 1.508 1.508 0 0 1-.82.223 1.491 1.491 0 0 1-1.046-.392 1.272 1.272 0 0 1-.009-1.9 1.54 1.54 0 0 1 1.07-.376 1.432 1.432 0 0 1 1.042.392 1.359 1.359 0 0 1 .4 1.019zm-.4-.281a1.1 1.1 0 0 0-.379-.634 1.14 1.14 0 0 0-.718-.213 1.08 1.08 0 0 0-.7.229.959.959 0 0 0-.35.618z" transform="translate(-893.746 -523.502)" style="fill:#cca855"/>
                            <path data-name="路径 23903" d="M1081.3 575.059h-.371v-2.526h.345v.29a.8.8 0 0 1 .661-.327v.349a.741.741 0 0 0-.49.183.713.713 0 0 0-.148.5z" transform="translate(-898.161 -523.54)" style="fill:#cca855"/>
                            <path data-name="路径 23904" d="M1084.357 574.107v-2.2h-.54v-.328h.54v-.815h.365v.815h.54v.328h-.54v2.2z" transform="translate(-899.747 -522.588)" style="fill:#cca855"/>
                            <path data-name="路径 23905" d="M1087.416 572.579h.417l.875 2.05.917-2.05h.422l-1.529 3.341h-.389l.379-.822z" transform="translate(-901.728 -523.586)" style="fill:#cca855"/>
                            <path data-name="路径 23906" d="M1098.316 574.107v-3.341h.543l1.3 2.9 1.293-2.9h.548v3.341h-.354v-2.951l-1.319 2.951h-.334l-1.318-2.951v2.951z" transform="translate(-907.726 -522.588)" style="fill:#cca855"/>
                            <path data-name="路径 23907" d="M1110.632 574.642a1.136 1.136 0 0 1-.46.343 1.571 1.571 0 0 1-.625.124 1.477 1.477 0 0 1-1.037-.38 1.27 1.27 0 0 1 .009-1.886 1.525 1.525 0 0 1 1.06-.381 1.488 1.488 0 0 1 .6.119 1.172 1.172 0 0 1 .453.341v-.407h.355v2.526h-.355zm0-.879a.929.929 0 0 0-.322-.7 1.056 1.056 0 0 0-.742-.3 1.1 1.1 0 0 0-.776.3.975.975 0 0 0-.321.742.926.926 0 0 0 .319.712 1.1 1.1 0 0 0 .767.29 1.055 1.055 0 0 0 .753-.306.984.984 0 0 0 .322-.738z" transform="translate(-913.108 -523.521)" style="fill:#cca855"/>
                            <path data-name="路径 23908" d="M1116.387 572.514h.355v.287a1.052 1.052 0 0 1 .387-.257 1.549 1.549 0 0 1 1.057.02.906.906 0 0 1 .385.3.878.878 0 0 1 .14.319 2.594 2.594 0 0 1 .042.539v1.32h-.36v-1.414a.924.924 0 0 0-.191-.65.812.812 0 0 0-.613-.2 1 1 0 0 0-.433.088.7.7 0 0 0-.294.254.674.674 0 0 0-.094.236 2.654 2.654 0 0 0-.027.46v1.229h-.355z" transform="translate(-917.671 -523.521)" style="fill:#cca855"/>
                            <path data-name="路径 23909" d="M1125.737 574.642a1.134 1.134 0 0 1-.459.343 1.567 1.567 0 0 1-.624.124 1.479 1.479 0 0 1-1.038-.38 1.271 1.271 0 0 1 .009-1.886 1.525 1.525 0 0 1 1.06-.381 1.488 1.488 0 0 1 .6.119 1.167 1.167 0 0 1 .453.341v-.407h.355v2.526h-.355zm0-.879a.929.929 0 0 0-.322-.7 1.056 1.056 0 0 0-.742-.3 1.1 1.1 0 0 0-.776.3.975.975 0 0 0-.321.742.926.926 0 0 0 .319.712 1.1 1.1 0 0 0 .767.29 1.054 1.054 0 0 0 .753-.306.984.984 0 0 0 .322-.738z" transform="translate(-921.421 -523.521)" style="fill:#cca855"/>
                            <path data-name="路径 23910" d="M1131.79 575.239a.649.649 0 0 0 .3.343 1.046 1.046 0 0 0 .524.123 1.059 1.059 0 0 0 .775-.287 1.026 1.026 0 0 0 .292-.767v-.067a1.388 1.388 0 0 1-.469.378 1.3 1.3 0 0 1-.579.128 1.525 1.525 0 0 1-1.06-.38 1.267 1.267 0 0 1-.005-1.884 1.48 1.48 0 0 1 1.032-.379 1.527 1.527 0 0 1 .619.115 1.246 1.246 0 0 1 .462.358v-.415h.355v2.108a1.287 1.287 0 0 1-1.4 1.4 1.549 1.549 0 0 1-.826-.212.958.958 0 0 1-.445-.567zm-.254-1.489a.979.979 0 0 0 .315.741 1.069 1.069 0 0 0 .761.3 1.057 1.057 0 0 0 .741-.3.932.932 0 0 0 .322-.7.986.986 0 0 0-.317-.736 1.041 1.041 0 0 0-.746-.3 1.086 1.086 0 0 0-.76.29.931.931 0 0 0-.316.705z" transform="translate(-925.795 -523.514)" style="fill:#cca855"/>
                            <path data-name="路径 23911" d="M1142 573.861h-2.557a.929.929 0 0 0 .335.663 1.228 1.228 0 0 0 1.326.107 1 1 0 0 0 .394-.405h.413a1.475 1.475 0 0 1-.55.64 1.509 1.509 0 0 1-.82.223 1.492 1.492 0 0 1-1.046-.392 1.273 1.273 0 0 1-.009-1.9 1.541 1.541 0 0 1 1.07-.376 1.432 1.432 0 0 1 1.042.392 1.36 1.36 0 0 1 .4 1.019zm-.4-.281a1.1 1.1 0 0 0-.378-.634 1.141 1.141 0 0 0-.719-.213 1.081 1.081 0 0 0-.7.229.96.96 0 0 0-.35.618z" transform="translate(-930.151 -523.502)" style="fill:#cca855"/>
                            <path data-name="路径 23912" d="M1149.317 572.909a1.119 1.119 0 0 1 .428-.334 1.4 1.4 0 0 1 .573-.114 1.042 1.042 0 0 1 .839.309 1.528 1.528 0 0 1 .262.995v1.274h-.349V573.7a1.085 1.085 0 0 0-.185-.713.761.761 0 0 0-.6-.212.968.968 0 0 0-.425.088.707.707 0 0 0-.292.254.725.725 0 0 0-.092.236 2.474 2.474 0 0 0-.028.46v1.229h-.344v-1.414a.906.906 0 0 0-.2-.644.8.8 0 0 0-.607-.208 1 1 0 0 0-.433.088.7.7 0 0 0-.294.254.682.682 0 0 0-.094.236 2.654 2.654 0 0 0-.027.46v1.229h-.36v-2.526h.36v.287a1.053 1.053 0 0 1 .382-.255 1.371 1.371 0 0 1 .5-.085 1.391 1.391 0 0 1 .586.121.946.946 0 0 1 .4.324z" transform="translate(-934.565 -523.521)" style="fill:#cca855"/>
                            <path data-name="路径 23913" d="M1161.2 573.861h-2.557a.93.93 0 0 0 .335.663 1.228 1.228 0 0 0 1.326.107 1 1 0 0 0 .394-.405h.413a1.475 1.475 0 0 1-.55.64 1.51 1.51 0 0 1-.82.223 1.492 1.492 0 0 1-1.046-.392 1.273 1.273 0 0 1-.009-1.9 1.543 1.543 0 0 1 1.07-.376 1.43 1.43 0 0 1 1.042.392 1.358 1.358 0 0 1 .4 1.019zm-.4-.281a1.1 1.1 0 0 0-.379-.634 1.14 1.14 0 0 0-.718-.213 1.082 1.082 0 0 0-.7.229.961.961 0 0 0-.35.618z" transform="translate(-940.716 -523.502)" style="fill:#cca855"/>
                            <path data-name="路径 23914" d="M1166.3 572.514h.355v.287a1.044 1.044 0 0 1 .387-.257 1.548 1.548 0 0 1 1.057.02.907.907 0 0 1 .385.3.88.88 0 0 1 .14.319 2.554 2.554 0 0 1 .043.539v1.32h-.36v-1.414a.922.922 0 0 0-.192-.65.812.812 0 0 0-.613-.2 1 1 0 0 0-.433.088.7.7 0 0 0-.294.254.682.682 0 0 0-.094.236 2.667 2.667 0 0 0-.026.46v1.229h-.355z" transform="translate(-945.137 -523.521)" style="fill:#cca855"/>
                            <path data-name="路径 23915" d="M1173.321 574.107v-2.2h-.54v-.328h.54v-.815h.366v.815h.54v.328h-.54v2.2z" transform="translate(-948.704 -522.588)" style="fill:#cca855"/>
                            <path data-name="路径 23916" d="M1050.089 583.834a1.27 1.27 0 0 1-.466.518 1.244 1.244 0 0 1-.667.181 1.1 1.1 0 0 1-.772-.294.935.935 0 0 1-.321-.715.923.923 0 0 1 .193-.561 1.19 1.19 0 0 1 .518-.393 1.364 1.364 0 0 1-.339-.356.729.729 0 0 1-.091-.369.709.709 0 0 1 .264-.555.962.962 0 0 1 .654-.23.873.873 0 0 1 .608.236.722.722 0 0 1 .258.55.686.686 0 0 1-.186.464 1.353 1.353 0 0 1-.534.345l.761.626.441-1.041h.4l-.563 1.275.834.689-.229.243zm-.267-.219-1-.829a1.049 1.049 0 0 0-.423.312.685.685 0 0 0-.145.427.641.641 0 0 0 .2.491.731.731 0 0 0 .519.189.769.769 0 0 0 .45-.143 1.517 1.517 0 0 0 .399-.446zm-.863-1.179a1.09 1.09 0 0 0 .437-.252.5.5 0 0 0 .145-.353.433.433 0 0 0-.146-.33.5.5 0 0 0-.351-.135.533.533 0 0 0-.375.133.452.452 0 0 0-.145.35.471.471 0 0 0 .094.283 1.5 1.5 0 0 0 .342.305z" transform="translate(-879.962 -528.253)" style="fill:#fff"/>
                            <path data-name="路径 23917" d="M1063.271 581.981a1.611 1.611 0 0 0-.563-.457 1.651 1.651 0 0 0-.71-.146 1.51 1.51 0 0 0-1.068.413 1.3 1.3 0 0 0-.444.982 1.35 1.35 0 0 0 .441 1.022 1.5 1.5 0 0 0 1.071.415 1.652 1.652 0 0 0 .7-.145 1.5 1.5 0 0 0 .545-.432h.439a1.779 1.779 0 0 1-.689.661 2.009 2.009 0 0 1-.97.233 1.969 1.969 0 0 1-1.378-.5 1.63 1.63 0 0 1-.552-1.257 1.529 1.529 0 0 1 .149-.666 1.748 1.748 0 0 1 .438-.568 1.865 1.865 0 0 1 .6-.362 2.193 2.193 0 0 1 1.727.121 1.8 1.8 0 0 1 .706.688z" transform="translate(-886.693 -528.247)" style="fill:#cca855"/>
                            <path data-name="路径 23918" d="M1069.452 584.182a1.246 1.246 0 0 1 .427-.949 1.444 1.444 0 0 1 1.012-.394 1.521 1.521 0 0 1 1.05.388 1.2 1.2 0 0 1 .434.924 1.275 1.275 0 0 1-.425.963 1.452 1.452 0 0 1-1.03.4 1.484 1.484 0 0 1-1.042-.391 1.228 1.228 0 0 1-.426-.941zm.381-.005a.962.962 0 0 0 .312.729 1.085 1.085 0 0 0 .775.294 1.067 1.067 0 0 0 .765-.294.971.971 0 0 0 .309-.734.952.952 0 0 0-.313-.733 1.128 1.128 0 0 0-.794-.287 1.04 1.04 0 0 0-.743.3.967.967 0 0 0-.311.724z" transform="translate(-891.842 -529.231)" style="fill:#cca855"/>
                            <path data-name="路径 23919" d="M1077.485 582.95h.355v.287a1.051 1.051 0 0 1 .387-.257 1.55 1.55 0 0 1 1.058.02.907.907 0 0 1 .385.3.88.88 0 0 1 .14.319 2.56 2.56 0 0 1 .042.539v1.32h-.36v-1.414a.922.922 0 0 0-.192-.65.812.812 0 0 0-.613-.2 1 1 0 0 0-.433.088.7.7 0 0 0-.294.254.685.685 0 0 0-.094.236 2.642 2.642 0 0 0-.027.46v1.229h-.355z" transform="translate(-896.263 -529.264)" style="fill:#cca855"/>
                            <path data-name="路径 23920" d="M1084.216 584.668h.376v.009a.537.537 0 0 0 .151.392.5.5 0 0 0 .375.155.529.529 0 0 0 .354-.12.377.377 0 0 0 .142-.3.391.391 0 0 0-.112-.292 1.073 1.073 0 0 0-.406-.207 1.5 1.5 0 0 1-.615-.305.592.592 0 0 1-.144-.417.639.639 0 0 1 .24-.5.862.862 0 0 1 .581-.207.852.852 0 0 1 .575.183.682.682 0 0 1 .229.51h-.387a.385.385 0 0 0-.127-.277.463.463 0 0 0-.312-.1.424.424 0 0 0-.3.107.371.371 0 0 0-.069.455.429.429 0 0 0 .162.139 1.36 1.36 0 0 0 .3.11q.2.053.263.078a.844.844 0 0 1 .39.269.7.7 0 0 1 .125.428.676.676 0 0 1-.255.541.97.97 0 0 1-.646.214.838.838 0 0 1-.895-.863z" transform="translate(-899.967 -529.25)" style="fill:#cca855"/>
                            <path data-name="路径 23921" d="M1089.743 583.015h.36v1.341a1.116 1.116 0 0 0 .188.732.781.781 0 0 0 .617.215.979.979 0 0 0 .429-.089.73.73 0 0 0 .3-.256.675.675 0 0 0 .093-.233 2.6 2.6 0 0 0 .028-.467v-1.243h.365v2.526h-.365v-.273a.994.994 0 0 1-.368.261 1.331 1.331 0 0 1-.492.081 1.146 1.146 0 0 1-.882-.3 1.436 1.436 0 0 1-.27-.981z" transform="translate(-903.009 -529.329)" style="fill:#cca855"/>
                            <path data-name="路径 23922" d="M1096.91 584.543V581.2h.365v3.341z" transform="translate(-906.953 -528.331)" style="fill:#cca855"/>
                            <path data-name="路径 23923" d="M1099.5 584.543v-2.2h-.54v-.328h.54v-.815h.365v.815h.54v.328h-.54v2.2z" transform="translate(-908.081 -528.331)" style="fill:#cca855"/>
                            <path data-name="路径 23924" d="M1105.614 585.078a1.136 1.136 0 0 1-.46.343 1.567 1.567 0 0 1-.624.124 1.477 1.477 0 0 1-1.037-.38 1.27 1.27 0 0 1 .009-1.886 1.524 1.524 0 0 1 1.059-.381 1.488 1.488 0 0 1 .6.119 1.168 1.168 0 0 1 .453.341v-.407h.355v2.526h-.355zm0-.879a.928.928 0 0 0-.322-.7 1.057 1.057 0 0 0-.742-.3 1.1 1.1 0 0 0-.776.3.973.973 0 0 0-.321.742.924.924 0 0 0 .319.712 1.1 1.1 0 0 0 .767.29 1.056 1.056 0 0 0 .753-.306.984.984 0 0 0 .322-.737z" transform="translate(-910.347 -529.264)" style="fill:#cca855"/>
                            <path data-name="路径 23925" d="M1111.369 582.95h.354v.287a1.053 1.053 0 0 1 .387-.257 1.55 1.55 0 0 1 1.058.02.908.908 0 0 1 .385.3.878.878 0 0 1 .14.319 2.55 2.55 0 0 1 .042.539v1.32h-.36v-1.414a.922.922 0 0 0-.192-.65.811.811 0 0 0-.612-.2 1 1 0 0 0-.433.088.7.7 0 0 0-.294.254.682.682 0 0 0-.094.236 2.654 2.654 0 0 0-.027.46v1.229h-.354z" transform="translate(-914.909 -529.264)" style="fill:#cca855"/>
                            <path data-name="路径 23926" d="M1120.591 583.709a1.1 1.1 0 0 0-.408-.408 1.171 1.171 0 0 0-.572-.132 1.028 1.028 0 0 0-.742.295.976.976 0 0 0-.3.73.962.962 0 0 0 .306.727 1.053 1.053 0 0 0 .756.292 1.158 1.158 0 0 0 .582-.143.942.942 0 0 0 .384-.4h.4a1.306 1.306 0 0 1-.518.634 1.517 1.517 0 0 1-.831.224 1.478 1.478 0 0 1-1.039-.389 1.256 1.256 0 0 1 .005-1.886 1.6 1.6 0 0 1 1.856-.166 1.359 1.359 0 0 1 .527.625z" transform="translate(-918.658 -529.244)" style="fill:#cca855"/>
                            <path data-name="路径 23927" d="M1125.356 583.015h.417l.875 2.05.917-2.05h.422l-1.529 3.341h-.389l.379-.822z" transform="translate(-922.606 -529.329)" style="fill:#cca855"/>
                            <path data-name="路径 23928" d="M1137.9 584.543h-1.689V581.2h.371v3.018h1.318z" transform="translate(-928.579 -528.331)" style="fill:#cca855"/>
                            <path data-name="路径 23929" d="M1141.392 584.543v-2.2h-.54v-.328h.54v-.815h.365v.815h.54v.328h-.54v2.2z" transform="translate(-931.134 -528.331)" style="fill:#cca855"/>
                            <path data-name="路径 23930" d="M1147.495 582.42v-1.22h.365v3.341h-.365v-.38a1.3 1.3 0 0 1-.474.33 1.534 1.534 0 0 1-.6.119 1.468 1.468 0 0 1-1.032-.386 1.236 1.236 0 0 1-.42-.946 1.22 1.22 0 0 1 .414-.936 1.478 1.478 0 0 1 1.037-.38 1.54 1.54 0 0 1 .609.116 1.235 1.235 0 0 1 .466.342zm.01.888a.98.98 0 0 0-.32-.736 1.056 1.056 0 0 0-.753-.305 1.1 1.1 0 0 0-.767.29.924.924 0 0 0-.319.71.978.978 0 0 0 .32.743 1.1 1.1 0 0 0 .776.3 1.055 1.055 0 0 0 .741-.3.932.932 0 0 0 .317-.703z" transform="translate(-933.399 -528.331)" style="fill:#cca855"/>
                            <path data-name="路径 23931" d="M1154.025 587.886h-.371v-.609h.371z" transform="translate(-938.179 -531.674)" style="fill:#cca855"/>
                        </g>
                    </g>
                    <g data-name="组 24950">
                        <path data-name="路径 23932" d="M911.871 571a4.454 4.454 0 0 1 2.487.573 1.889 1.889 0 0 1 .85 1.67 1.487 1.487 0 0 1-.28.894 2.061 2.061 0 0 1-.819.641 2.181 2.181 0 0 1 1.191.693 1.824 1.824 0 0 1 .438 1.223 2.274 2.274 0 0 1-.267 1.079 2.368 2.368 0 0 1-.737.837 3.068 3.068 0 0 1-1.049.451 7.787 7.787 0 0 1-1.654.135h-2.35V571zm-.742 7.095h1.162a2.855 2.855 0 0 0 1.5-.309 1.053 1.053 0 0 0 .482-.954 1.228 1.228 0 0 0-.5-1.064 2.524 2.524 0 0 0-1.483-.362h-1.162zm.014-3.664h.469a3.483 3.483 0 0 0 1.628-.278.974.974 0 0 0 .487-.918.919.919 0 0 0-.441-.84 2.635 2.635 0 0 0-1.351-.273h-.792z" transform="translate(-803.92 -522.716)" style="fill:#cca855"/>
                        <path data-name="路径 23933" d="M932.2 579.2h-5.3V571h5.3v1.1h-3.812v2.436h3.812v1.08h-3.812v2.457h3.812z" transform="translate(-813.397 -522.716)" style="fill:#cca855"/>
                        <path data-name="路径 23934" d="M945 579.2h-1.483V571h2.954a4.826 4.826 0 0 1 2.8.68 2.258 2.258 0 0 1 .965 1.967 2.091 2.091 0 0 1-.805 1.672 3.351 3.351 0 0 1-2.075.722l2.88 3.156h-1.856l-3.38-3.808zm0-3.939h.76a5.015 5.015 0 0 0 2.282-.4 1.3 1.3 0 0 0 .749-1.217 1.253 1.253 0 0 0-.643-1.167 4.233 4.233 0 0 0-2.035-.372H945z" transform="translate(-822.539 -522.716)" style="fill:#cca855"/>
                        <path data-name="路径 23935" d="M963.841 579.2h-1.482V571h1.482zm.056-4.07 3.843-4.13h1.778l-3.957 4.07 3.851 4.126h-1.852z" transform="translate(-832.909 -522.716)" style="fill:#cca855"/>
                        <path data-name="路径 23936" d="M985.889 579.2h-5.295V571h5.295v1.1h-3.812v2.436h3.812v1.08h-3.812v2.457h3.812z" transform="translate(-842.943 -522.716)" style="fill:#cca855"/>
                        <path data-name="路径 23937" d="M1002.036 579.2h-4.828V571h1.482v7.074h3.346z" transform="translate(-852.086 -522.716)" style="fill:#cca855"/>
                        <path data-name="路径 23938" d="M1016.682 579.2h-5.294V571h5.294v1.1h-3.812v2.436h3.812v1.08h-3.812v2.457h3.812z" transform="translate(-859.889 -522.716)" style="fill:#cca855"/>
                        <path data-name="路径 23939" d="M1029.886 576.245v2.95h-1.486v-3.023l-3.131-5.172h1.649l2.252 3.941 2.23-3.941h1.637z" transform="translate(-867.528 -522.716)" style="fill:#cca855"/>
                    </g>
                    <g data-name="组 24951">
                        <path data-name="路径 23940" d="M912.865 516.026q-.173.329-1.029 1.712-.857 1.3-1.2 1.874v15.963h-1.886v-12.869l-2.915 2.607-1.029-.653q1.628-1.873 3-3.747a21.258 21.258 0 0 0 2.143-4.234 9.154 9.154 0 0 1 .257-1.059c.115-.381.314-.57.6-.57a3.373 3.373 0 0 1 1.115.325 1.886 1.886 0 0 1 .944.651zm12.861 19.387h-1.715v-.813h-8.574v.814h-1.715v-16.13h3.43c.228-.378.514-.9.857-1.546a16.8 16.8 0 0 0 .686-1.548l.172-.65a.322.322 0 0 1 .086-.245.979.979 0 0 1 .429-.083c.286.055.629.136 1.029.245a2.055 2.055 0 0 1 1.029.733 16.91 16.91 0 0 0-1.286 1.548 15.732 15.732 0 0 0-1.115 1.546h6.688zm-1.715-9.124V520.1h-8.574v6.191zm0 7.5V527.1h-8.574v6.681z" transform="translate(-801.237 -491.928)" style="fill:#fff"/>
                        <path data-name="路径 23941" d="M982.012 531.191a19.3 19.3 0 0 1-.857 2.118 2.488 2.488 0 0 1-1.886 1.465h-5.316a1.77 1.77 0 0 1-1.2-.57 1.8 1.8 0 0 1-.343-1.059v-4.724h-2.4q-.173 3.828-2.658 5.3a13.084 13.084 0 0 1-6.259 1.709l-.514-.814a17.035 17.035 0 0 0 5.144-1.71q2.058-1.222 2.4-4.481h-3.944v-7.495h6.345v-2.444h-9.946v-.814h9.946v-1.791c-.058-.164-.115-.325-.171-.489a.838.838 0 0 1-.172-.489c0-.053.027-.081.086-.081q.085-.083.257 0l1.887.081v.489a3.2 3.2 0 0 0-.086.814 3.9 3.9 0 0 0-.086.814v.651h9.774v.814h-9.774v2.444h6.345v7.495H974.3v4.724a.735.735 0 0 0 .429.653 3.147 3.147 0 0 0 .943.161h2.4q.942-.163 1.286-1.465c.285-.87.542-1.573.772-2.119zm-5.144-3.747v-5.7h-10.8v5.7z" transform="translate(-831.928 -491.778)" style="fill:#fff"/>
                        <path data-name="路径 23942" d="m1025.627 519.709-.858.976a15.157 15.157 0 0 1-1.457-1.221 16.437 16.437 0 0 1-1.287-1.548q-.688 1.06-1.457 2.119-.689 1.059-1.458 2.118h5.316v.976h-2.226v2.933h3.087v.815h-3.087v5.7l3.087-.489v.814c-.974.217-2 .437-3.087.653a11.388 11.388 0 0 0-2.915 1.14 1.345 1.345 0 0 0-.686.326.826.826 0 0 1-.686.164 1.689 1.689 0 0 1-.343-.653 1.741 1.741 0 0 1-.171-.651q.082-.651 1.286-.734 1.112-.163 1.8-.245v-6.027h-3.258v-.815h3.258v-2.933h-2.229l-1.029.653-.514-.979a24.857 24.857 0 0 0 2.23-3.013q.942-1.627 1.886-3.339h1.715a16.906 16.906 0 0 0 1.372 1.629 23.324 23.324 0 0 0 1.711 1.631zm-5.316 12.055-1.715.489a15.46 15.46 0 0 0-.429-1.71 15.775 15.775 0 0 0-.6-1.712l.858-.651a10.973 10.973 0 0 1 1.028 1.71q.428.896.858 1.874zm5.145-2.933v.164a4.742 4.742 0 0 0-1.286 1.465q-.515.9-.943 1.793a1.97 1.97 0 0 1-.514-.325.933.933 0 0 1-.343-.326c.227-.6.429-1.167.6-1.712q.17-.892.257-1.71l.515-.326a2.806 2.806 0 0 1 1.028.245 1.209 1.209 0 0 1 .686.732zm12.518 3.422-1.543 1.629a25.762 25.762 0 0 1-2.144-2.28 14.162 14.162 0 0 1-1.629-2.444v7h-1.886v-6.352q-1.2 1.059-2.4 2.2a18.287 18.287 0 0 1-2.572 2.037l-.858-.489a20.157 20.157 0 0 0 1.886-1.874 19.347 19.347 0 0 0 1.715-2.038q.427-.651 1.286-2.116a9.283 9.283 0 0 0 .943-2.118v-5.048h-4.458v-.814h4.458v-1.954a2.286 2.286 0 0 1-.171-.489 1.2 1.2 0 0 0-.172-.489l.172-.161h.514a2.064 2.064 0 0 1 .943.081c.456.055.714.244.772.57a1142.433 1142.433 0 0 1-.171 1.468v.976h4.973v.814h-4.973v4.4a5.9 5.9 0 0 0 1.629 4.237 18.831 18.831 0 0 0 3.686 3.254zm-7.546-7.005-.857 1.14a5.413 5.413 0 0 0-.943-.976 4.4 4.4 0 0 0-.943-.815q-.431.571-.772 1.059a7.406 7.406 0 0 1-.772 1.059l-.857-.653a13.328 13.328 0 0 0 1.372-2.035 6.487 6.487 0 0 0 .857-2.038.956.956 0 0 1 0-.57c.056-.161.228-.245.515-.245a2.081 2.081 0 0 1 .686.164l.686.161a.225.225 0 0 0 .085.164l.086.164-.171.325a1.806 1.806 0 0 0-.772.651 3.932 3.932 0 0 0-.429.979 2.8 2.8 0 0 1 1.2.489 4.359 4.359 0 0 1 1.03.976zm7.546-.161-1.029 1.791q-.515-.651-1.115-1.3a7.529 7.529 0 0 0-1.114-1.14l-1.2 1.793-.686-.814c.171-.381.37-.787.6-1.223a8.15 8.15 0 0 1 .6-1.22 5.08 5.08 0 0 0 .085-.815 1.517 1.517 0 0 1 .258-.814h.343a1.628 1.628 0 0 1 .857.081.819.819 0 0 1 .686.57 1.7 1.7 0 0 0-.6.814 5.582 5.582 0 0 0-.429.815c.4.216.857.461 1.372.734q.685.319 1.372.727z" transform="translate(-862.818 -492.683)" style="fill:#fff"/>
                        <path data-name="路径 23943" d="m1082.75 526.485-2.229.978v8.145h-1.886v-7.495l-3.258 1.3a1.4 1.4 0 0 0-.343.244 1.35 1.35 0 0 1-.343.245h-.171a2.493 2.493 0 0 1-.343-.815l-.172-.814 4.63-1.3v-5.538h-2.058l-1.543 3.258-.857-.325q.6-1.71 1.115-3.5.429-1.71.771-3.5a5.225 5.225 0 0 0 .943.081 1.572 1.572 0 0 1 .943.408v.326l-1.029 2.444h1.715v-3.748a94.766 94.766 0 0 0-.171-.489.849.849 0 0 1-.171-.489c-.057-.108-.057-.189 0-.245 0-.053.058-.081.171-.081h.343l1.715.164.171.489a2151.707 2151.707 0 0 0-.171.976v3.422h1.715v.814h-1.715v4.887l2.229-.814zm11.489-5.538q0 2.2-.086 6.436a18.282 18.282 0 0 1-.943 5.946c-.228.27-.486.57-.772.9a5.989 5.989 0 0 0-.772.895l-1.2-.161h-2.744l-.343-1.142a14.793 14.793 0 0 0 1.543.244 14.319 14.319 0 0 0 1.543.084q.344-.329.686-.653a2.523 2.523 0 0 0 .514-.651 33.012 33.012 0 0 0 .686-5.785q.171-4.316.171-6.271h-.857a27.344 27.344 0 0 1-.772 4.236 20.182 20.182 0 0 1-1.457 4.073 14.7 14.7 0 0 1-2.487 3.094 27.245 27.245 0 0 1-3 2.771l-.858-.814a16.21 16.21 0 0 0 4.63-6.111 36.205 36.205 0 0 0 2.058-7.25h-1.029a24.206 24.206 0 0 1-2.4 5.7 28.05 28.05 0 0 1-3.944 4.887l-.857-.651a17.778 17.778 0 0 0 3.258-4.561 20.2 20.2 0 0 0 1.715-5.377h-1.2a19.993 19.993 0 0 0-1.286 1.712 19.188 19.188 0 0 1-1.286 1.71l-1.029-.489q1.116-1.789 2.144-3.664.944-1.873 1.8-3.667a.929.929 0 0 1 0-.57.8.8 0 0 1 .343-.406 2.4 2.4 0 0 1 1.028.242 4.931 4.931 0 0 1 1.029.734l-2.058 3.583h7.716a.4.4 0 0 1 .429.328 2.514 2.514 0 0 1 .087.648z" transform="translate(-894.347 -492.125)" style="fill:#fff"/>
                        <path data-name="路径 23944" d="M1150.357 529.366h-7.717a14.392 14.392 0 0 0 3.173 2.688 27.148 27.148 0 0 0 3.858 1.874l-.858.979a21.978 21.978 0 0 1-4.287-2.2 24.712 24.712 0 0 1-3.6-2.852v5.54h-1.715v-5.377a41.573 41.573 0 0 1-3.859 2.85 33.4 33.4 0 0 1-4.2 2.2l-.858-.814a27.687 27.687 0 0 0 3.858-1.954 14.347 14.347 0 0 0 3.172-2.932h-7.545v-.976h9.432v-1.954h-7.031v-.814h7.031v-1.629h-8.06v-.814h4.973a4.953 4.953 0 0 0-1.029-1.468q-.514-.567-1.029-1.14h-3.772v-.979h6.859v-2.769a2.332 2.332 0 0 1-.171-.57 2.519 2.519 0 0 0-.172-.57.549.549 0 0 1 .258-.245.364.364 0 0 1 .257-.081 4.7 4.7 0 0 1 .858.081 1.548 1.548 0 0 0 .858.081l.171.489a916.661 916.661 0 0 0-.171 1.14v2.444h2.229v-2.93a1.465 1.465 0 0 1-.086-.489 1.448 1.448 0 0 1-.085-.489l.171-.325a3.188 3.188 0 0 1 1.029 0 3.384 3.384 0 0 1 1.029.161v.653a419.014 419.014 0 0 1-.172.976v2.444h6.688v.979h-4.116a5.825 5.825 0 0 0-1.2 1.14 6.319 6.319 0 0 0-.858 1.468h5.316v.814h-8.06v1.629h6.859v.814h-6.859v1.954h9.432zm-14.057-11.075-1.543 1.3q-.6-.893-1.115-1.71-.6-.813-1.115-1.548l.857-.814a8.538 8.538 0 0 1 1.458 1.386q.767.731 1.458 1.386zm7.2 2.28h-7.888a12.84 12.84 0 0 1 1.372 1.14 18.434 18.434 0 0 1 1.372 1.468h3.43a7 7 0 0 1 .857-1.385c.282-.437.569-.843.857-1.224zm4.63-3.584v.161a13.156 13.156 0 0 0-1.715 1.059 10.906 10.906 0 0 0-1.543 1.059l-1.029-.489q.515-.73 1.2-1.71a2.748 2.748 0 0 1 1.715-1.22 4.487 4.487 0 0 1 .771.487 1.354 1.354 0 0 1 .599.653z" transform="translate(-925.04 -492.074)" style="fill:#fff"/>
                    </g>
                </g>
            </g>
        </g>
        <path data-name="矩形 11402" style="fill:none" d="M0 0h240v80H0z"/>
    </g>
</svg>
